<svg version="1.1" id="el_C_XmfmBwjZX" xmlns="http://www.w3.org/2000/svg" xmlns:xlink="http://www.w3.org/1999/xlink" x="0px" y="0px" viewBox="0 0 600 400" enable-background="new 0 0 600 400" xml:space="preserve"><style>@-webkit-keyframes el_7qUxdyb0LDD_Animation{90.91%{opacity: 0;}95.45%{opacity: 1;}0%{opacity: 0;}100%{opacity: 1;}}@keyframes el_7qUxdyb0LDD_Animation{90.91%{opacity: 0;}95.45%{opacity: 1;}0%{opacity: 0;}100%{opacity: 1;}}@-webkit-keyframes el_RuBAQ82XmmP_Animation{86.36%{opacity: 0;}90.91%{opacity: 1;}0%{opacity: 0;}100%{opacity: 1;}}@keyframes el_RuBAQ82XmmP_Animation{86.36%{opacity: 0;}90.91%{opacity: 1;}0%{opacity: 0;}100%{opacity: 1;}}@-webkit-keyframes el_FhOOhbnyQfO_Animation{81.82%{opacity: 0;}86.36%{opacity: 1;}0%{opacity: 0;}100%{opacity: 1;}}@keyframes el_FhOOhbnyQfO_Animation{81.82%{opacity: 0;}86.36%{opacity: 1;}0%{opacity: 0;}100%{opacity: 1;}}@-webkit-keyframes el_OvO5gTr4Ip0_Animation{76.97%{opacity: 0;}81.82%{opacity: 1;}0%{opacity: 0;}100%{opacity: 1;}}@keyframes el_OvO5gTr4Ip0_Animation{76.97%{opacity: 0;}81.82%{opacity: 1;}0%{opacity: 0;}100%{opacity: 1;}}@-webkit-keyframes el_JhYCHjOR-Yn_Animation{72.73%{opacity: 0;}77.27%{opacity: 1;}0%{opacity: 0;}100%{opacity: 1;}}@keyframes el_JhYCHjOR-Yn_Animation{72.73%{opacity: 0;}77.27%{opacity: 1;}0%{opacity: 0;}100%{opacity: 1;}}@-webkit-keyframes el_DQmbSgSCnvY_Animation{68.18%{opacity: 0;}72.73%{opacity: 1;}0%{opacity: 0;}100%{opacity: 1;}}@keyframes el_DQmbSgSCnvY_Animation{68.18%{opacity: 0;}72.73%{opacity: 1;}0%{opacity: 0;}100%{opacity: 1;}}@-webkit-keyframes el_vC576QlssSG_Animation{63.64%{opacity: 0;}68.18%{opacity: 1;}0%{opacity: 0;}100%{opacity: 1;}}@keyframes el_vC576QlssSG_Animation{63.64%{opacity: 0;}68.18%{opacity: 1;}0%{opacity: 0;}100%{opacity: 1;}}@-webkit-keyframes el_BBe-nulHFTO_Animation{59.09%{opacity: 0;}63.64%{opacity: 1;}0%{opacity: 0;}100%{opacity: 1;}}@keyframes el_BBe-nulHFTO_Animation{59.09%{opacity: 0;}63.64%{opacity: 1;}0%{opacity: 0;}100%{opacity: 1;}}@-webkit-keyframes el_pxXWHNEX96D_Animation{54.55%{opacity: 0;}59.09%{opacity: 1;}0%{opacity: 0;}100%{opacity: 1;}}@keyframes el_pxXWHNEX96D_Animation{54.55%{opacity: 0;}59.09%{opacity: 1;}0%{opacity: 0;}100%{opacity: 1;}}@-webkit-keyframes el_Opt6LqTEo4g_Animation{50.30%{opacity: 0;}54.55%{opacity: 1;}100%{opacity: 1;}}@keyframes el_Opt6LqTEo4g_Animation{50.30%{opacity: 0;}54.55%{opacity: 1;}100%{opacity: 1;}}@-webkit-keyframes el_uz1b2qdFQVC_Animation{45.45%{opacity: 0;}50%{opacity: 1;}0%{opacity: 0;}100%{opacity: 1;}}@keyframes el_uz1b2qdFQVC_Animation{45.45%{opacity: 0;}50%{opacity: 1;}0%{opacity: 0;}100%{opacity: 1;}}@-webkit-keyframes el_PCQRG7A0tek_Animation{41.21%{opacity: 0;}45.45%{opacity: 1;}0%{opacity: 0;}100%{opacity: 1;}}@keyframes el_PCQRG7A0tek_Animation{41.21%{opacity: 0;}45.45%{opacity: 1;}0%{opacity: 0;}100%{opacity: 1;}}@-webkit-keyframes el_4y9WBa13VuJ_Animation{36.36%{opacity: 0;}40.91%{opacity: 1;}0%{opacity: 0;}100%{opacity: 1;}}@keyframes el_4y9WBa13VuJ_Animation{36.36%{opacity: 0;}40.91%{opacity: 1;}0%{opacity: 0;}100%{opacity: 1;}}@-webkit-keyframes el_qgkLU4wTu30_Animation{31.82%{opacity: 0;}36.36%{opacity: 1;}0%{opacity: 0;}100%{opacity: 1;}}@keyframes el_qgkLU4wTu30_Animation{31.82%{opacity: 0;}36.36%{opacity: 1;}0%{opacity: 0;}100%{opacity: 1;}}@-webkit-keyframes el_JSlLLjSZyln_Animation{26.97%{opacity: 0;}31.82%{opacity: 1;}0%{opacity: 0;}100%{opacity: 1;}}@keyframes el_JSlLLjSZyln_Animation{26.97%{opacity: 0;}31.82%{opacity: 1;}0%{opacity: 0;}100%{opacity: 1;}}@-webkit-keyframes el_8IkL8RqrrJE_Animation{22.42%{opacity: 0;}27.27%{opacity: 1;}0%{opacity: 0;}100%{opacity: 1;}}@keyframes el_8IkL8RqrrJE_Animation{22.42%{opacity: 0;}27.27%{opacity: 1;}0%{opacity: 0;}100%{opacity: 1;}}@-webkit-keyframes el_MU8S46irOAy_Animation{18.18%{opacity: 0;}22.73%{opacity: 1;}0%{opacity: 0;}100%{opacity: 1;}}@keyframes el_MU8S46irOAy_Animation{18.18%{opacity: 0;}22.73%{opacity: 1;}0%{opacity: 0;}100%{opacity: 1;}}@-webkit-keyframes el_yMMM3HwVlNu_Animation{13.64%{opacity: 0;}18.18%{opacity: 1;}0%{opacity: 0;}100%{opacity: 1;}}@keyframes el_yMMM3HwVlNu_Animation{13.64%{opacity: 0;}18.18%{opacity: 1;}0%{opacity: 0;}100%{opacity: 1;}}@-webkit-keyframes el_NXsbYXenSwJ_Animation{9.09%{opacity: 0;}13.64%{opacity: 1;}0%{opacity: 0;}100%{opacity: 1;}}@keyframes el_NXsbYXenSwJ_Animation{9.09%{opacity: 0;}13.64%{opacity: 1;}0%{opacity: 0;}100%{opacity: 1;}}@-webkit-keyframes el_zcF6gG_fxH7_Animation{4.55%{opacity: 0;}9.09%{opacity: 1;}0%{opacity: 0;}100%{opacity: 1;}}@keyframes el_zcF6gG_fxH7_Animation{4.55%{opacity: 0;}9.09%{opacity: 1;}0%{opacity: 0;}100%{opacity: 1;}}@-webkit-keyframes el_AWSB6BC2rBx_Animation{0%{opacity: 0;}4.55%{opacity: 1;}100%{opacity: 1;}}@keyframes el_AWSB6BC2rBx_Animation{0%{opacity: 0;}4.55%{opacity: 1;}100%{opacity: 1;}}#el_C_XmfmBwjZX *{-webkit-animation-duration: 11s;animation-duration: 11s;-webkit-animation-timing-function: cubic-bezier(0, 0, 1, 1);animation-timing-function: cubic-bezier(0, 0, 1, 1);}#el_AWSB6BC2rBx{fill: none;stroke: url(#SVGID_1_);stroke-width: 2.0357;-webkit-animation-name: el_AWSB6BC2rBx_Animation;animation-name: el_AWSB6BC2rBx_Animation;opacity: 1;}#el_6ic7ova2m48{fill: #0A73BA;}#el_DYIawNKzpeN{fill: #0A73BA;}#el__FXZHzSTXfM{fill: none;stroke: #0A73BA;stroke-width: 1.0179;}#el_0lDqpHWU0TU{fill: #1B85C7;}#el_Ni4f4fXk5D7{fill: #1B85C7;}#el_CAvMpi3G_js{fill: none;stroke: #0F84C6;stroke-width: 1.2056;}#el_9FyTURHHzQ0{fill: #1B85C7;}#el_BOOOrw1e_b8{fill: none;stroke: url(#SVGID_2_);stroke-width: 1.6552;}#el_vhTcoU1wUjX{fill: #1B99D6;}#el_vP72jdRV1Yf{fill: none;stroke: url(#SVGID_3_);stroke-width: 2.3803;}#el_vC576QlssSG{fill: none;stroke: url(#SVGID_4_);stroke-width: 0.8869;-webkit-animation-name: el_vC576QlssSG_Animation;animation-name: el_vC576QlssSG_Animation;opacity: 1;}#el_68jdvtF-ssp{fill: #1E90CF;}#el_eKZjw3aIlkB{fill: url(#SVGID_5_);}#el_xhnqRt5RUMP{fill: none;stroke: url(#SVGID_6_);stroke-width: 0.3822;}#el_Kx3-u-0NmMu{fill: #1B85C7;}#el_RzKWfIBHcp0{fill: none;stroke: url(#SVGID_7_);stroke-width: 1.1491;}#el_EXi-2XCXFLU{fill: #2795D3;}#el_K4N3cFs_-bf{fill: none;stroke: #2795D3;stroke-width: 0.8534;}#el_KFpMNSfoEmA{fill: #2795D3;}#el_3-tkBiawpoo{fill: #2795D3;}#el_-PjzlhbDVQb{fill: none;stroke: #2795D3;stroke-width: 0.6104;}#el_itWYTjOkfS7{fill: #2795D3;}#el_2LeYuC7qL9d{fill: #2795D3;}#el_kp6Dnj_CuNg{fill: none;stroke: #2795D3;stroke-width: 0.8143;}#el_KZ_u3Q_p7d7{fill: #0A73BA;}#el__FJoaTrgp3N{fill: #0A73BA;}#el_KAkcjnSuQdQ{fill: #0A73BA;}#el_1jbVxc0l4Uw{fill: none;stroke: #0A73BA;stroke-width: 0.8143;}#el_YJCu4P6kjIg{fill: #0A73BA;}#el_jbYzts7sSrX{fill: none;stroke: #0A73BA;stroke-width: 0.8143;}#el_uX34aOWZgOj{fill: #1E90CF;}#el_65owAarfkqs{fill: #26A0DA;}#el_ZAzqbOk1WQx{fill: #37ACDE;}#el_QDxh-EqFNaz{fill: none;stroke: url(#SVGID_8_);stroke-width: 0.3822;}#el_XqZ3IYgiOxb{fill: #4EC8F4;}#el_i8ZnwsDMdgD{fill: #4EC8F4;}#el_NkdmPaPV-fr{fill: none;stroke: #4EC8F4;stroke-width: 0.4071;}#el_OvO5gTr4Ip0{fill: none;stroke: url(#SVGID_9_);stroke-width: 1.2214;-webkit-animation-name: el_OvO5gTr4Ip0_Animation;animation-name: el_OvO5gTr4Ip0_Animation;opacity: 1;}#el_-f62s41dD-O{fill: #4EC8F4;}#el_9oOmcDsGetF{fill: #AFE1F4;}#el_aDDmp59yUws{fill: none;stroke: url(#SVGID_10_);stroke-width: 0.6103;}#el_PzKznhy_YTK{fill: #4EC8F4;}#el_XG0Rb59vZks{fill: none;stroke: url(#SVGID_11_);stroke-width: 1.2214;}#el_VjwrNtjeMT0{fill: #4EC8F4;}#el_iGXzsHnt2HA{fill: #B5E3F3;}#el_GYNzYEVbqgZ{fill: none;stroke: url(#SVGID_12_);stroke-width: 0.6103;}#el_-hGZAYyq2Zi{fill: #4EC8F4;}#el_Lh5VZbQqQls{fill: none;stroke: #4EC8F4;stroke-width: 0.4071;}#el_A7-sBnc0cXr{fill: url(#SVGID_13_);}#el_g3RvjLuJFIj{fill: none;stroke: url(#SVGID_14_);stroke-width: 2.0357;}#el_fPx4z8gGfFI{fill: none;stroke: url(#SVGID_15_);stroke-width: 2.0357;}#el_n2B3dp3DBd5{fill: url(#SVGID_16_);}#el_urqKjiimtvb{fill: none;stroke: url(#SVGID_17_);stroke-width: 2.0357;}#el_RSQObmAg7tC{fill: #0A73BA;}#el_6PWo-rNGzGp{fill: #0A73BA;}#el_PNcNH-tvEJ5{fill: none;stroke: #0A73BA;stroke-width: 1.0179;}#el_4OlrQKmpwzd{fill: #1B85C7;}#el_pP8FKVIv2K2{fill: #1B85C7;}#el__s-NR0vYSbI{fill: none;stroke: #0F84C6;stroke-width: 1.2056;}#el_oRG6NILrzMm{fill: #1B85C7;}#el_INNW7xMAfYo{fill: none;stroke: url(#SVGID_18_);stroke-width: 1.6552;}#el_FKfpvTvkLM9{fill: #1B99D6;}#el_77TgYoOBSY0{fill: none;stroke: url(#SVGID_19_);stroke-width: 2.3803;}#el_OiLkkTEwPdD{fill: none;stroke: url(#SVGID_20_);stroke-width: 0.8869;}#el_W6CrlKnxej8{fill: #1E90CF;}#el_EEgRaxFcYhC{fill: url(#SVGID_21_);}#el_u5r-CeJ6vnp{fill: none;stroke: url(#SVGID_22_);stroke-width: 0.3822;}#el_N_WUBGwVfJg{fill: #1B85C7;}#el_uWb_uBA6ZAo{fill: none;stroke: url(#SVGID_23_);stroke-width: 1.1491;}#el_L1a7wZaenzE{fill: #2795D3;}#el_Gu2zQif7kKq{fill: none;stroke: #2795D3;stroke-width: 0.8534;}#el_uqpv5tLxvlx{fill: #2795D3;}#el_94PH8emVD8j{fill: #2795D3;}#el_xbYgi69tIbM{fill: none;stroke: #2795D3;stroke-width: 0.6104;}#el_2IRkP1nr8IG{fill: #2795D3;}#el_ZUSIEnH46h_{fill: #2795D3;}#el_05Sil2hZ_oS{fill: none;stroke: #2795D3;stroke-width: 0.8143;}#el_Q12H98A87-G{fill: #0A73BA;}#el_dp0k94JHvIr{fill: #0A73BA;}#el_5LWyz4Nf9JN{fill: #0A73BA;}#el_sBF11-znkAc{fill: none;stroke: #0A73BA;stroke-width: 0.8143;}#el_sKwSZ6jkx4f{fill: #0A73BA;}#el_RCJtyIyVZj8{fill: none;stroke: #0A73BA;stroke-width: 0.8143;}#el_mTRBa13A7Qb{fill: #1E90CF;}#el_2nbLw2WY4wb{fill: #26A0DA;}#el_Zk5TDKFwkyc{fill: #37ACDE;}#el_jZBtTe7y4BH{fill: none;stroke: url(#SVGID_24_);stroke-width: 0.3822;}#el_T5ZKJNI6XPJ{fill: #4EC8F4;}#el_8XKoRYYDSyd{fill: #4EC8F4;}#el_pw2-30lfAuq{fill: none;stroke: #4EC8F4;stroke-width: 0.4071;}#el_80dvqMAtABs{fill: none;stroke: url(#SVGID_25_);stroke-width: 1.2214;}#el_baEUz-EVxAj{fill: #4EC8F4;}#el_cdMDtkGX1BM{fill: #AFE1F4;}#el_UjHcjZikVsF{fill: none;stroke: url(#SVGID_26_);stroke-width: 0.6103;}#el_9X0Zg5Vz2PV{fill: #4EC8F4;}#el_RAyAHC65i4a{fill: none;stroke: url(#SVGID_27_);stroke-width: 1.2214;}#el_R2glwdfckcG{fill: #4EC8F4;}#el_IMXoUJcoVPu{fill: #B5E3F3;}#el_SVCBAYk2KrX{fill: none;stroke: url(#SVGID_28_);stroke-width: 0.6103;}#el_avpTfBUEac3{fill: #4EC8F4;}#el_PW_W7_kYUsJ{fill: none;stroke: #4EC8F4;stroke-width: 0.4071;}#el_2J2WJfUo074{visibility: hidden;}#el_zcF6gG_fxH7{-webkit-animation-name: el_zcF6gG_fxH7_Animation;animation-name: el_zcF6gG_fxH7_Animation;opacity: 1;}#el_NXsbYXenSwJ{-webkit-animation-name: el_NXsbYXenSwJ_Animation;animation-name: el_NXsbYXenSwJ_Animation;opacity: 1;}#el_yMMM3HwVlNu{-webkit-animation-name: el_yMMM3HwVlNu_Animation;animation-name: el_yMMM3HwVlNu_Animation;opacity: 1;}#el_MU8S46irOAy{-webkit-animation-name: el_MU8S46irOAy_Animation;animation-name: el_MU8S46irOAy_Animation;opacity: 1;}#el_8IkL8RqrrJE{-webkit-animation-name: el_8IkL8RqrrJE_Animation;animation-name: el_8IkL8RqrrJE_Animation;opacity: 1;}#el_JSlLLjSZyln{-webkit-animation-name: el_JSlLLjSZyln_Animation;animation-name: el_JSlLLjSZyln_Animation;opacity: 1;}#el_qgkLU4wTu30{-webkit-animation-name: el_qgkLU4wTu30_Animation;animation-name: el_qgkLU4wTu30_Animation;opacity: 1;}#el_4y9WBa13VuJ{-webkit-animation-name: el_4y9WBa13VuJ_Animation;animation-name: el_4y9WBa13VuJ_Animation;opacity: 1;}#el_PCQRG7A0tek{-webkit-animation-name: el_PCQRG7A0tek_Animation;animation-name: el_PCQRG7A0tek_Animation;opacity: 1;}#el_uz1b2qdFQVC{-webkit-animation-name: el_uz1b2qdFQVC_Animation;animation-name: el_uz1b2qdFQVC_Animation;opacity: 1;}#el_Opt6LqTEo4g{-webkit-animation-name: el_Opt6LqTEo4g_Animation;animation-name: el_Opt6LqTEo4g_Animation;opacity: 1;}#el_pxXWHNEX96D{-webkit-animation-name: el_pxXWHNEX96D_Animation;animation-name: el_pxXWHNEX96D_Animation;opacity: 1;}#el_BBe-nulHFTO{-webkit-animation-name: el_BBe-nulHFTO_Animation;animation-name: el_BBe-nulHFTO_Animation;opacity: 1;}#el_DQmbSgSCnvY{-webkit-animation-name: el_DQmbSgSCnvY_Animation;animation-name: el_DQmbSgSCnvY_Animation;opacity: 1;}#el_JhYCHjOR-Yn{-webkit-animation-name: el_JhYCHjOR-Yn_Animation;animation-name: el_JhYCHjOR-Yn_Animation;opacity: 1;}#el_FhOOhbnyQfO{-webkit-animation-name: el_FhOOhbnyQfO_Animation;animation-name: el_FhOOhbnyQfO_Animation;opacity: 1;}#el_RuBAQ82XmmP{-webkit-animation-name: el_RuBAQ82XmmP_Animation;animation-name: el_RuBAQ82XmmP_Animation;opacity: 1;}#el_7qUxdyb0LDD{-webkit-animation-name: el_7qUxdyb0LDD_Animation;animation-name: el_7qUxdyb0LDD_Animation;opacity: 1;}</style>
<g id="el__ICOg-o7_Vr">
	<linearGradient id="SVGID_1_" gradientUnits="userSpaceOnUse" x1="555.9399" y1="289.4526" x2="600" y2="289.4526">
		<stop offset="0" style="stop-color:#0085C1"/>
		<stop offset="1" style="stop-color:#194999"/>
	</linearGradient>
	<polyline stroke-miterlimit="10" points="600,251.248 578.695,251.248 &#10;&#9;&#9;557.115,290.606 579.644,327.657 600,327.657 &#9;" id="el_AWSB6BC2rBx"/>
	<g id="el_NXsbYXenSwJ">
		<path d="M548.891,199.847c0,0.999-0.81,1.81-1.81,1.81s-1.811-0.811-1.811-1.81c0-1.001,0.811-1.811,1.811-1.811&#10;&#9;&#9;&#9;S548.891,198.846,548.891,199.847z" id="el_6ic7ova2m48"/>
		<path d="M520.377,182.983c0,1.648-1.336,2.986-2.984,2.986c-1.648,0-2.986-1.338-2.986-2.986&#10;&#9;&#9;&#9;c0-1.649,1.338-2.985,2.986-2.985C519.041,179.998,520.377,181.334,520.377,182.983z" id="el_DYIawNKzpeN"/>
		<polygon stroke-miterlimit="10" points="517.393,217.289 507.459,200.084 &#10;&#9;&#9;&#9;517.393,182.878 537.26,182.878 547.193,200.084 537.26,217.289 &#9;&#9;" id="el__FXZHzSTXfM"/>
	</g>
	<g id="el_8IkL8RqrrJE">
		<path d="M481.402,194.205c0,1.409-1.142,2.553-2.553,2.553c-1.41,0-2.553-1.143-2.553-2.553&#10;&#9;&#9;&#9;c0-1.41,1.143-2.553,2.553-2.553C480.26,191.652,481.402,192.795,481.402,194.205z" id="el_0lDqpHWU0TU"/>
		<path d="M480.617,154.33c0,1.096-0.887,1.982-1.98,1.982c-1.096,0-1.984-0.887-1.984-1.982&#10;&#9;&#9;&#9;c0-1.095,0.889-1.982,1.984-1.982C479.73,152.348,480.617,153.235,480.617,154.33z" id="el_Ni4f4fXk5D7"/>
		<polygon stroke-miterlimit="10" points="478.48,194.611 466.715,174.232 &#10;&#9;&#9;&#9;478.48,153.855 502.012,153.855 513.777,174.232 502.012,194.611 &#9;&#9;" id="el_CAvMpi3G_js"/>
	</g>
	<g id="el_uz1b2qdFQVC">
		<path d="M471.246,158.376c0,2.001-1.621,3.623-3.623,3.623c-2,0-3.621-1.622-3.621-3.623&#10;&#9;&#9;&#9;c0-2,1.621-3.622,3.621-3.622C469.625,154.754,471.246,156.376,471.246,158.376z" id="el_9FyTURHHzQ0"/>
		<linearGradient id="SVGID_2_" gradientUnits="userSpaceOnUse" x1="403.1245" y1="158.3427" x2="469.649" y2="158.3427">
			<stop offset="0" style="stop-color:#2197D3"/>
			<stop offset="1" style="stop-color:#1D81C4"/>
		</linearGradient>
		<polygon stroke-miterlimit="10" points="420.234,186.32 &#10;&#9;&#9;&#9;404.08,158.343 420.234,130.365 452.539,130.365 468.693,158.343 452.539,186.32 &#9;&#9;" id="el_BOOOrw1e_b8"/>
	</g>
	<g id="el_BBe-nulHFTO">
		<path d="M404.961,135.546c0,3.203-2.598,5.801-5.803,5.801c-3.203,0-5.801-2.598-5.801-5.801&#10;&#9;&#9;&#9;c0-3.205,2.598-5.802,5.801-5.802C402.363,129.744,404.961,132.341,404.961,135.546z" id="el_vhTcoU1wUjX"/>
		<linearGradient id="SVGID_3_" gradientUnits="userSpaceOnUse" x1="305.0027" y1="136.0139" x2="400.6692" y2="136.0139">
			<stop offset="0" style="stop-color:#B7D6F0"/>
			<stop offset="1" style="stop-color:#1D98D5"/>
		</linearGradient>
		<polygon stroke-miterlimit="10" points="329.607,176.248 &#10;&#9;&#9;&#9;306.377,136.014 329.607,95.78 376.064,95.78 399.295,136.014 376.064,176.248 &#9;&#9;" id="el_vP72jdRV1Yf"/>
	</g>
	<linearGradient id="SVGID_4_" gradientUnits="userSpaceOnUse" x1="391.4607" y1="109.7334" x2="427.1059" y2="109.7334">
		<stop offset="0" style="stop-color:#B7D6F0"/>
		<stop offset="1" style="stop-color:#1D98D5"/>
	</linearGradient>
	<polygon stroke-miterlimit="10" points="400.627,124.724 &#10;&#9;&#9;391.973,109.733 400.627,94.743 417.938,94.743 426.594,109.733 417.938,124.724 &#9;" id="el_vC576QlssSG"/>
	<g id="el_pxXWHNEX96D">
		<path d="M404.131,208.9c0,0.991-0.805,1.796-1.799,1.796c-0.992,0-1.797-0.805-1.797-1.796&#10;&#9;&#9;&#9;c0-0.994,0.805-1.8,1.797-1.8C403.326,207.101,404.131,207.906,404.131,208.9z" id="el_68jdvtF-ssp"/>
		<linearGradient id="SVGID_5_" gradientUnits="userSpaceOnUse" x1="361.041" y1="187.5918" x2="369.252" y2="187.5918">
			<stop offset="0" style="stop-color:#6EC2ED"/>
			<stop offset="1" style="stop-color:#1C8ECB"/>
		</linearGradient>
		<circle cx="365.146" cy="187.592" r="4.105" id="el_eKZjw3aIlkB"/>
		<linearGradient id="SVGID_6_" gradientUnits="userSpaceOnUse" x1="352.2891" y1="209.2905" x2="402.957" y2="209.2905">
			<stop offset="0" style="stop-color:#6EC2ED"/>
			<stop offset="1" style="stop-color:#1C8ECB"/>
		</linearGradient>
		<polygon stroke-miterlimit="10" points="365.066,231.04 &#10;&#9;&#9;&#9;352.51,209.291 365.066,187.541 390.178,187.541 402.736,209.291 390.178,231.04 &#9;&#9;" id="el_xhnqRt5RUMP"/>
	</g>
	<g id="el_JSlLLjSZyln">
		<path d="M476.441,109.68c0,1.936-1.57,3.506-3.506,3.506c-1.938,0-3.506-1.57-3.506-3.506&#10;&#9;&#9;&#9;c0-1.936,1.568-3.506,3.506-3.506C474.871,106.174,476.441,107.744,476.441,109.68z" id="el_Kx3-u-0NmMu"/>
		<linearGradient id="SVGID_7_" gradientUnits="userSpaceOnUse" x1="461.2272" y1="128.8318" x2="507.4114" y2="128.8318">
			<stop offset="0" style="stop-color:#0085C1"/>
			<stop offset="1" style="stop-color:#194999"/>
		</linearGradient>
		<polygon stroke-miterlimit="10" points="473.103,148.255 &#10;&#9;&#9;&#9;461.891,128.832 473.103,109.409 495.533,109.409 506.748,128.832 495.533,148.255 &#9;&#9;" id="el_RzKWfIBHcp0"/>
	</g>
	<g id="el_PCQRG7A0tek">
		<path d="M514.152,91.766c0,1.065-0.863,1.928-1.928,1.928c-1.064,0-1.928-0.863-1.928-1.928&#10;&#9;&#9;&#9;c0-1.064,0.863-1.928,1.928-1.928C513.289,89.838,514.152,90.702,514.152,91.766z" id="el_EXi-2XCXFLU"/>
		<polygon stroke-miterlimit="10" points="487.246,106.114 478.916,91.688 &#10;&#9;&#9;&#9;487.246,77.262 503.902,77.262 512.232,91.688 503.902,106.114 &#9;&#9;" id="el_K4N3cFs_-bf"/>
	</g>
	<g id="el_qgkLU4wTu30">
		<path d="M536.539,99.653c0,0.996-0.809,1.805-1.805,1.805s-1.805-0.809-1.805-1.805&#10;&#9;&#9;&#9;c0-0.998,0.809-1.806,1.805-1.806S536.539,98.655,536.539,99.653z" id="el_KFpMNSfoEmA"/>
		<path d="M519.037,109.968c0,1.064-0.861,1.927-1.928,1.927c-1.065,0-1.928-0.863-1.928-1.927&#10;&#9;&#9;&#9;c0-1.065,0.863-1.928,1.928-1.928C518.176,108.04,519.037,108.903,519.037,109.968z" id="el_3-tkBiawpoo"/>
		<polygon stroke-miterlimit="10" points="516.865,109.969 510.908,99.653 &#10;&#9;&#9;&#9;516.865,89.335 528.777,89.335 534.734,99.653 528.777,109.969 &#9;&#9;" id="el_-PjzlhbDVQb"/>
	</g>
	<g id="el_4y9WBa13VuJ">
		<path d="M533.191,76.715c0,0.66-0.533,1.194-1.193,1.194c-0.66,0-1.193-0.535-1.193-1.194&#10;&#9;&#9;&#9;c0-0.659,0.533-1.194,1.193-1.194C532.658,75.521,533.191,76.056,533.191,76.715z" id="el_itWYTjOkfS7"/>
		<path d="M516.59,66.409c0,1.109-0.898,2.008-2.008,2.008c-1.111,0-2.01-0.899-2.01-2.008&#10;&#9;&#9;&#9;c0-1.109,0.898-2.009,2.01-2.009C515.691,64.4,516.59,65.3,516.59,66.409z" id="el_2LeYuC7qL9d"/>
		<polygon stroke-miterlimit="10" points="514.32,86.966 508.363,76.65 &#10;&#9;&#9;&#9;514.32,66.332 526.232,66.332 532.19,76.65 526.232,86.966 &#9;&#9;" id="el_kp6Dnj_CuNg"/>
	</g>
	<g id="el_yMMM3HwVlNu">
		<path d="M523.203,221.355c0,0.681-0.551,1.23-1.23,1.23c-0.68,0-1.229-0.55-1.229-1.23&#10;&#9;&#9;&#9;c0-0.679,0.549-1.229,1.229-1.229C522.652,220.127,523.203,220.677,523.203,221.355z" id="el_KZ_u3Q_p7d7"/>
		<path d="M523.865,255.659c0,1.086-0.881,1.967-1.969,1.967s-1.967-0.881-1.967-1.967&#10;&#9;&#9;&#9;c0-1.088,0.879-1.968,1.967-1.968S523.865,254.571,523.865,255.659z" id="el__FJoaTrgp3N"/>
		<path d="M554.545,238.288c0,1.69-1.369,3.061-3.062,3.061c-1.691,0-3.062-1.37-3.062-3.061&#10;&#9;&#9;&#9;c0-1.693,1.371-3.062,3.062-3.062C553.176,235.226,554.545,236.595,554.545,238.288z" id="el_KAkcjnSuQdQ"/>
		<polygon stroke-miterlimit="10" points="521.871,255.658 511.938,238.453 &#10;&#9;&#9;&#9;521.871,221.248 541.738,221.248 551.672,238.453 541.738,255.658 &#9;&#9;" id="el_1jbVxc0l4Uw"/>
	</g>
	<g id="el_MU8S46irOAy">
		<g id="el_VMENrpjaWgY">
			<path d="M515.967,225.973c0,1.689-1.369,3.061-3.062,3.061c-1.69,0-3.061-1.371-3.061-3.061&#10;&#9;&#9;&#9;&#9;c0-1.693,1.371-3.064,3.061-3.064C514.598,222.908,515.967,224.279,515.967,225.973z" id="el_YJCu4P6kjIg"/>
		</g>
		<polygon stroke-miterlimit="10" points="471.596,250.152 457.783,226.23 &#10;&#9;&#9;&#9;471.596,202.306 499.219,202.306 513.033,226.23 499.219,250.152 &#9;&#9;" id="el_jbYzts7sSrX"/>
	</g>
	<g id="el_Opt6LqTEo4g">
		<path d="M435.023,222.764c0,1.124-0.912,2.035-2.037,2.035c-1.123,0-2.035-0.911-2.035-2.035&#10;&#9;&#9;&#9;c0-1.125,0.912-2.036,2.035-2.036C434.111,220.727,435.023,221.639,435.023,222.764z" id="el_uX34aOWZgOj"/>
		<path d="M414.922,233.96c0,0.703-0.57,1.273-1.273,1.273c-0.705,0-1.275-0.57-1.275-1.273&#10;&#9;&#9;&#9;c0-0.705,0.57-1.275,1.275-1.275C414.352,232.686,414.922,233.255,414.922,233.96z" id="el_65owAarfkqs"/>
		<path d="M414.348,211.465c0,0.386-0.314,0.699-0.699,0.699c-0.387,0-0.699-0.313-0.699-0.699&#10;&#9;&#9;&#9;c0-0.386,0.312-0.699,0.699-0.699C414.033,210.766,414.348,211.079,414.348,211.465z" id="el_ZAzqbOk1WQx"/>
		<linearGradient id="SVGID_8_" gradientUnits="userSpaceOnUse" x1="406.832" y1="222.7637" x2="433.207" y2="222.7637">
			<stop offset="0" style="stop-color:#6EC2ED"/>
			<stop offset="1" style="stop-color:#1C8ECB"/>
		</linearGradient>
		<polygon stroke-miterlimit="10" points="413.537,233.993 &#10;&#9;&#9;&#9;407.053,222.764 413.537,211.534 426.504,211.534 432.986,222.764 426.504,233.993 &#9;&#9;" id="el_QDxh-EqFNaz"/>
	</g>
	<g id="el_JhYCHjOR-Yn">
		<path d="M272.814,100.55c0.108,2.063-1.477,3.823-3.54,3.932c-2.063,0.109-3.823-1.476-3.931-3.539&#10;&#9;&#9;&#9;c-0.108-2.063,1.475-3.823,3.539-3.932C270.945,96.902,272.706,98.487,272.814,100.55z" id="el_XqZ3IYgiOxb"/>
		<path d="M305.228,120.663c0.046,0.892-0.639,1.653-1.532,1.7c-0.892,0.047-1.653-0.638-1.699-1.53&#10;&#9;&#9;&#9;c-0.046-0.892,0.638-1.653,1.53-1.7C304.419,119.086,305.182,119.771,305.228,120.663z" id="el_i8ZnwsDMdgD"/>
		<polygon stroke-miterlimit="10" points="269.177,140.799 257.597,120.742 &#10;&#9;&#9;&#9;269.177,100.685 292.337,100.685 303.918,120.742 292.337,140.799 &#9;&#9;" id="el_NkdmPaPV-fr"/>
	</g>
	<linearGradient id="SVGID_9_" gradientUnits="userSpaceOnUse" x1="199.0321" y1="149.459" x2="263.7814" y2="149.459">
		<stop offset="0" style="stop-color:#D1EBFA"/>
		<stop offset="1" style="stop-color:#55C6F2"/>
	</linearGradient>
	<polygon stroke-miterlimit="10" points="215.572,176.886 &#10;&#9;&#9;199.737,149.46 215.572,122.032 247.241,122.032 263.076,149.46 247.241,176.886 &#9;" id="el_OvO5gTr4Ip0"/>
	<g id="el_FhOOhbnyQfO">
		<path d="M235.127,105.464c0.081,1.526-1.092,2.829-2.618,2.91c-1.527,0.081-2.829-1.093-2.909-2.619&#10;&#9;&#9;&#9;c-0.08-1.527,1.092-2.83,2.619-2.91C233.745,102.765,235.048,103.937,235.127,105.464z" id="el_-f62s41dD-O"/>
		<path d="M211.785,119.358c0.08,1.527-1.093,2.829-2.619,2.909c-1.527,0.08-2.829-1.092-2.909-2.619&#10;&#9;&#9;&#9;c-0.08-1.527,1.092-2.829,2.619-2.91C210.402,116.659,211.706,117.831,211.785,119.358z" id="el_9oOmcDsGetF"/>
		<linearGradient id="SVGID_10_" gradientUnits="userSpaceOnUse" x1="200.3615" y1="105.6089" x2="232.7167" y2="105.6089">
			<stop offset="0" style="stop-color:#D1EBFA"/>
			<stop offset="1" style="stop-color:#55C6F2"/>
		</linearGradient>
		<polygon stroke-miterlimit="10" points="208.626,119.313 &#10;&#9;&#9;&#9;200.714,105.609 208.626,91.904 224.452,91.904 232.364,105.609 224.452,119.313 &#9;&#9;" id="el_aDDmp59yUws"/>
	</g>
	<g id="el_RuBAQ82XmmP">
		<path d="M203.99,94.131c0.08,1.527-1.093,2.829-2.619,2.91c-1.527,0.08-2.829-1.092-2.909-2.619&#10;&#9;&#9;&#9;c-0.08-1.526,1.091-2.829,2.619-2.909C202.607,91.433,203.911,92.604,203.99,94.131z" id="el_PzKznhy_YTK"/>
		<linearGradient id="SVGID_11_" gradientUnits="userSpaceOnUse" x1="155.0927" y1="94.103" x2="202.257" y2="94.103">
			<stop offset="0" style="stop-color:#FFFFFF"/>
			<stop offset="0.2174" style="stop-color:#FAFDFF"/>
			<stop offset="0.3817" style="stop-color:#EFF8FE"/>
			<stop offset="0.5287" style="stop-color:#DEF1FC"/>
			<stop offset="0.6655" style="stop-color:#C6E8FA"/>
			<stop offset="0.7953" style="stop-color:#A6DCF7"/>
			<stop offset="0.9181" style="stop-color:#7CCFF4"/>
			<stop offset="1" style="stop-color:#55C6F2"/>
		</linearGradient>
		<polygon stroke-miterlimit="10" points="167.236,113.915 &#10;&#9;&#9;&#9;155.798,94.103 167.236,74.291 190.113,74.291 201.552,94.103 190.113,113.915 &#9;&#9;" id="el_XG0Rb59vZks"/>
	</g>
	<g id="el_7qUxdyb0LDD">
		<path d="M230.281,73.905c0.046,0.873-0.626,1.618-1.499,1.664c-0.874,0.045-1.619-0.625-1.665-1.498&#10;&#9;&#9;&#9;c-0.046-0.873,0.625-1.619,1.499-1.664C229.49,72.36,230.236,73.031,230.281,73.905z" id="el_VjwrNtjeMT0"/>
		<path d="M206.877,60.322c0.046,0.874-0.625,1.619-1.498,1.665c-0.873,0.046-1.619-0.625-1.664-1.498&#10;&#9;&#9;&#9;c-0.046-0.874,0.625-1.619,1.498-1.665C206.086,58.778,206.831,59.449,206.877,60.322z" id="el_iGXzsHnt2HA"/>
		<linearGradient id="SVGID_12_" gradientUnits="userSpaceOnUse" x1="197.0202" y1="74.1934" x2="229.3744" y2="74.1934">
			<stop offset="0" style="stop-color:#D1EBFA"/>
			<stop offset="1" style="stop-color:#55C6F2"/>
		</linearGradient>
		<polygon stroke-miterlimit="10" points="205.285,87.898 &#10;&#9;&#9;&#9;197.373,74.193 205.285,60.489 221.109,60.489 229.022,74.193 221.109,87.898 &#9;&#9;" id="el_GYNzYEVbqgZ"/>
	</g>
	<g id="el_DQmbSgSCnvY">
		<path d="M312.697,165.579c0.109,2.064-1.477,3.823-3.539,3.932s-3.822-1.477-3.93-3.538&#10;&#9;&#9;&#9;c-0.109-2.064,1.475-3.823,3.539-3.933C310.828,161.933,312.59,163.517,312.697,165.579z" id="el_-hGZAYyq2Zi"/>
		<polygon stroke-miterlimit="10" points="274.222,185.833 262.642,165.775 &#10;&#9;&#9;&#9;274.222,145.719 297.383,145.719 308.963,165.775 297.383,185.833 &#9;&#9;" id="el_Lh5VZbQqQls"/>
	</g>
	<g id="el_zcF6gG_fxH7">
		<linearGradient id="SVGID_13_" gradientUnits="userSpaceOnUse" x1="557.793" y1="182.9829" x2="570.0078" y2="182.9829">
			<stop offset="0" style="stop-color:#0085C1"/>
			<stop offset="1" style="stop-color:#194999"/>
		</linearGradient>
		<path d="M570.008,182.983c0,3.372-2.734,6.106-6.107,6.106c-3.373,0-6.107-2.734-6.107-6.106&#10;&#9;&#9;&#9;c0-3.373,2.734-6.107,6.107-6.107C567.273,176.876,570.008,179.61,570.008,182.983z" id="el_A7-sBnc0cXr"/>
		<linearGradient id="SVGID_14_" gradientUnits="userSpaceOnUse" x1="544.0212" y1="215.1479" x2="600" y2="215.1479">
			<stop offset="0" style="stop-color:#0085C1"/>
			<stop offset="1" style="stop-color:#194999"/>
		</linearGradient>
		<polyline stroke-miterlimit="10" points="600,182.983 &#10;&#9;&#9;&#9;564.309,182.983 545.205,215.013 564.309,247.312 600,247.312 &#9;&#9;" id="el_g3RvjLuJFIj"/>
	</g>
</g>

</svg>