<svg version="1.1" id="el_mh1RKknF-" xmlns="http://www.w3.org/2000/svg" xmlns:xlink="http://www.w3.org/1999/xlink" x="0px" y="0px" viewBox="0 0 188 190" style="enable-background:new 0 0 188.3 190.8;" xml:space="preserve"><style>@-webkit-keyframes el_-LdO4F18c4e_iJTgo6NYc_Animation{0%{-webkit-transform: translate(94.1500015258789px, 95.70000076293945px) scale(0.9, 0.9) translate(-94.1500015258789px, -95.70000076293945px);transform: translate(94.1500015258789px, 95.70000076293945px) scale(0.9, 0.9) translate(-94.1500015258789px, -95.70000076293945px);}50%{-webkit-transform: translate(94.1500015258789px, 95.70000076293945px) scale(0.7, 0.7) translate(-94.1500015258789px, -95.70000076293945px);transform: translate(94.1500015258789px, 95.70000076293945px) scale(0.7, 0.7) translate(-94.1500015258789px, -95.70000076293945px);}100%{-webkit-transform: translate(94.1500015258789px, 95.70000076293945px) scale(0.9, 0.9) translate(-94.1500015258789px, -95.70000076293945px);transform: translate(94.1500015258789px, 95.70000076293945px) scale(0.9, 0.9) translate(-94.1500015258789px, -95.70000076293945px);}}@keyframes el_-LdO4F18c4e_iJTgo6NYc_Animation{0%{-webkit-transform: translate(94.1500015258789px, 95.70000076293945px) scale(0.9, 0.9) translate(-94.1500015258789px, -95.70000076293945px);transform: translate(94.1500015258789px, 95.70000076293945px) scale(0.9, 0.9) translate(-94.1500015258789px, -95.70000076293945px);}50%{-webkit-transform: translate(94.1500015258789px, 95.70000076293945px) scale(0.7, 0.7) translate(-94.1500015258789px, -95.70000076293945px);transform: translate(94.1500015258789px, 95.70000076293945px) scale(0.7, 0.7) translate(-94.1500015258789px, -95.70000076293945px);}100%{-webkit-transform: translate(94.1500015258789px, 95.70000076293945px) scale(0.9, 0.9) translate(-94.1500015258789px, -95.70000076293945px);transform: translate(94.1500015258789px, 95.70000076293945px) scale(0.9, 0.9) translate(-94.1500015258789px, -95.70000076293945px);}}@-webkit-keyframes el_4vLSLICBii_8XV8G6zHG_Animation{0%{-webkit-transform: translate(94.13436836004257px, 95.69999599456787px) rotate(0deg) translate(-94.13436836004257px, -95.69999599456787px);transform: translate(94.13436836004257px, 95.69999599456787px) rotate(0deg) translate(-94.13436836004257px, -95.69999599456787px);}100%{-webkit-transform: translate(94.13436836004257px, 95.69999599456787px) rotate(-360deg) translate(-94.13436836004257px, -95.69999599456787px);transform: translate(94.13436836004257px, 95.69999599456787px) rotate(-360deg) translate(-94.13436836004257px, -95.69999599456787px);}}@keyframes el_4vLSLICBii_8XV8G6zHG_Animation{0%{-webkit-transform: translate(94.13436836004257px, 95.69999599456787px) rotate(0deg) translate(-94.13436836004257px, -95.69999599456787px);transform: translate(94.13436836004257px, 95.69999599456787px) rotate(0deg) translate(-94.13436836004257px, -95.69999599456787px);}100%{-webkit-transform: translate(94.13436836004257px, 95.69999599456787px) rotate(-360deg) translate(-94.13436836004257px, -95.69999599456787px);transform: translate(94.13436836004257px, 95.69999599456787px) rotate(-360deg) translate(-94.13436836004257px, -95.69999599456787px);}}#el_mh1RKknF- *{-webkit-animation-duration: 3s;animation-duration: 3s;-webkit-animation-iteration-count: infinite;animation-iteration-count: infinite;-webkit-animation-timing-function: cubic-bezier(0, 0, 1, 1);animation-timing-function: cubic-bezier(0, 0, 1, 1);}#el_aShR38Tcv8{fill: #7CC447;}#el_bD9zwy3Tu3{fill: #7CC447;}#el_0zPfwANkMw{fill: #7CC447;}#el_pQJLjLqNcl{fill: #7CC447;}#el_pZKnzE5WXx{fill: #7CC447;}#el_8csI9PW70I{fill: #7CC447;}#el_KUTEWP_moh{fill: #7CC447;}#el_dtxXoSecoZ{fill: #7CC447;}#el_3B3-2-o3KH{fill: #7CC447;}#el_oONGiGpUMh{fill: #7CC447;}#el_IH-H8fEICQ{fill: #7CC447;}#el_A7AaDh7221{fill: #7CC447;}#el_EfUVqqtjmj{fill: #7CC447;}#el_sHNq5JU1ys{fill: #7CC447;}#el_SQl6kprNQ6i{fill: #7CC447;}#el_0dlS2fUUIT4{fill: #7CC447;}#el_C9tgEF9Zm2G{fill: #7CC447;}#el_7zdhVg7edJN{fill: #7CC447;}#el_TL_IYVDrUoH{fill: #7CC447;}#el_iR0Y4r7CSWx{fill: #7CC447;}#el_Xbat7jZVdiD{fill: #7CC447;}#el_wveWy2nhWUD{fill: #7CC447;}#el_J6QMkRMBB9l{fill: #7CC447;}#el_JSM1nzbiSUx{fill: #7CC447;}#el_TT1mCklCXoh{fill: #7CC447;}#el_WdL_d_M-XH1{fill: #7CC447;}#el_IkEH7iI_XEJ{fill: #7CC447;}#el_ex793ACdz_4{fill: #7CC447;}#el_DMzmN-2hKVT{fill: #7CC447;}#el_vKh_6trAwFi{fill: #7CC447;}#el_33_FRDgZ9DW{fill: #7CC447;}#el_LdNpeoxhAQp{fill: #7CC447;}#el_3YGrLUmeKKj{fill: #7CC447;}#el_o6zCRpkf9FW{fill: #7CC447;}#el_aAGzQL7gjVd{fill: #7CC447;}#el_9Doruk6WV5J{fill: #7CC447;}#el_hHXuBxVN7aI{fill: #7CC447;}#el_xINTJonJtj2{fill: #7CC447;}#el_EpaVUeWvYf8{fill: url(#SVGID_1_);}#el_mxnpZnkVAru{fill: url(#SVGID_2_);}#el_eZ3WBfMLUHY{fill: url(#SVGID_3_);}#el_1uDmX1rtMgT{fill: url(#SVGID_4_);}#el_-e-0HyfTwlE{fill: url(#SVGID_5_);}#el_AWAFznoO15i{fill: url(#SVGID_6_);}#el_t-hgZzw7Ej0{fill: url(#SVGID_7_);}#el_MyZi8HZZEiO{fill: url(#SVGID_8_);}#el_4vLSLICBii_8XV8G6zHG{-webkit-animation-name: el_4vLSLICBii_8XV8G6zHG_Animation;animation-name: el_4vLSLICBii_8XV8G6zHG_Animation;-webkit-transform: translate(94.13436836004257px, 95.69999599456787px) rotate(0deg) translate(-94.13436836004257px, -95.69999599456787px);transform: translate(94.13436836004257px, 95.69999599456787px) rotate(0deg) translate(-94.13436836004257px, -95.69999599456787px);}#el_-LdO4F18c4e_iJTgo6NYc{-webkit-animation-name: el_-LdO4F18c4e_iJTgo6NYc_Animation;animation-name: el_-LdO4F18c4e_iJTgo6NYc_Animation;-webkit-transform: translate(94.1500015258789px, 95.70000076293945px) scale(0.9, 0.9) translate(-94.1500015258789px, -95.70000076293945px);transform: translate(94.1500015258789px, 95.70000076293945px) scale(0.9, 0.9) translate(-94.1500015258789px, -95.70000076293945px);}</style>

<g id="el_4vLSLICBii_8XV8G6zHG" data-animator-group="true" data-animator-type="1"><g id="el_4vLSLICBii">
	<path d="M95,13.8c0.3,0,0.6,0,0.8-0.2c0.2-0.2,0.4-0.4,0.6-0.7c0.1-0.3,0.3-0.6,0.6-1.1l4.5-9.9l1.3,0.1l3.3,10.6&#10;&#9;&#9;c0.1,0.3,0.2,0.6,0.3,1c0.1,0.4,0.1,0.7,0.1,1c0.4,0,0.8,0,1.1,0l-0.1,1.5l-5.1-0.4l0.1-1.3c0.6,0,0.9-0.2,1-0.7&#10;&#9;&#9;c0-0.3,0-0.6-0.1-0.9l-0.3-1.1l-4.1-0.2l-0.4,0.9c0,0.1-0.1,0.3-0.3,0.7c-0.2,0.3-0.3,0.6-0.4,0.8c0.4,0,0.9,0,1.3,0l-0.1,1.5&#10;&#9;&#9;l-4.1-0.3L95,13.8z M102.5,10.4l-0.7-2.4c-0.3-1.1-0.5-1.9-0.5-2.6l0,0c-0.3,0.9-0.6,1.7-0.9,2.4l-1,2.4L102.5,10.4z" id="el_aShR38Tcv8"/>
	<path d="M110.5,16.2c-0.8-0.8-1.4-1.8-1.7-2.9s-0.3-2.3,0-3.5c0.3-1.2,0.8-2.2,1.5-3.2c0.7-1,1.7-1.7,2.8-2.1&#10;&#9;&#9;c1.1-0.4,2.4-0.5,3.7-0.2c0.5,0.1,1,0.3,1.5,0.6s1,0.6,1.4,1l0,0l0.1-0.8l1.4,0.3l-1,4.3l-1.2-0.3c0.1-2.1-0.7-3.4-2.4-3.8&#10;&#9;&#9;c-0.8-0.2-1.6-0.1-2.3,0.2c-0.7,0.4-1.3,0.9-1.7,1.6c-0.5,0.7-0.8,1.6-1,2.5c-0.2,1.1-0.3,2-0.2,2.9c0.1,0.9,0.4,1.6,0.9,2.2&#10;&#9;&#9;c0.5,0.6,1.1,1,1.9,1.2c0.8,0.2,1.6,0.2,2.5-0.1c0.9-0.2,1.6-0.6,2.3-1.2l0.7,1c-1.1,0.9-2.1,1.5-3.2,1.7c-1.1,0.2-2.1,0.2-3,0&#10;&#9;&#9;C112.3,17.6,111.3,17,110.5,16.2z" id="el_bD9zwy3Tu3"/>
	<path d="M119.4,17.5c0.3,0.1,0.6,0.1,0.9,0c0.3-0.1,0.5-0.2,0.7-0.5c0.2-0.2,0.5-0.5,0.9-0.9l7.2-8.1l1.2,0.5&#10;&#9;&#9;l-0.1,11.1c0,0.3,0,0.6,0,1c0,0.4-0.1,0.7-0.2,1c0.4,0.1,0.8,0.2,1,0.4l-0.5,1.4l-4.7-1.9l0.5-1.2c0.6,0.2,0.9,0.1,1.1-0.4&#10;&#9;&#9;c0.1-0.2,0.1-0.5,0.1-0.9l0-1.1l-3.9-1.5l-0.6,0.7c-0.1,0.1-0.2,0.3-0.5,0.5s-0.5,0.5-0.6,0.7c0.4,0.1,0.8,0.3,1.3,0.4l-0.6,1.4&#10;&#9;&#9;l-3.8-1.5L119.4,17.5z M127.6,16.5l0.1-2.5c0-1.1,0.1-2,0.3-2.7l0,0c-0.5,0.8-1.1,1.5-1.6,2.1l-1.7,2L127.6,16.5z" id="el_0zPfwANkMw"/>
	<path d="M131.7,22.5c0.3,0.2,0.5,0.3,0.7,0.3c0.2,0,0.4,0,0.6-0.2c0.2-0.1,0.4-0.4,0.7-0.8l3.8-6.2&#10;&#9;&#9;c0.4-0.6,0.7-1.1,0.9-1.4l-1.2-0.7l0.8-1.3l4.7,2.8c1.4,0.8,2.3,1.8,3,2.9c0.6,1.1,0.9,2.2,0.8,3.4c-0.1,1.1-0.4,2.2-0.9,3.1&#10;&#9;&#9;c-0.6,1-1.3,1.7-2.3,2.4c-1,0.6-2.1,0.9-3.4,0.9s-2.7-0.4-4.1-1.3l-4.7-2.8L131.7,22.5z M139,26c0.8-0.1,1.4-0.4,2.1-0.9&#10;&#9;&#9;c0.6-0.5,1.2-1.1,1.6-1.9c1-1.6,1.4-3.1,1.2-4.3c-0.2-1.2-0.9-2.2-2.1-2.9c-0.4-0.2-0.7-0.3-1-0.2s-0.6,0.4-0.9,1l-3.8,6.3&#10;&#9;&#9;c-0.4,0.6-0.7,1.1-0.9,1.4c0.1,0,0.2,0.1,0.3,0.2l0.7,0.4c0.1,0.1,0.3,0.2,0.5,0.3C137.5,25.9,138.2,26.1,139,26z" id="el_pQJLjLqNcl"/>
	<path d="M143.4,29.9c0.3,0.2,0.5,0.3,0.7,0.4s0.4,0,0.6-0.1c0.2-0.1,0.5-0.4,0.8-0.7l4.7-5.6c0.5-0.5,0.8-1,1.2-1.3&#10;&#9;&#9;l-1.1-0.9l0.9-1.1l7.3,6.1l-2.3,2.9l-1-0.8c0.6-0.7,0.8-1.4,0.7-1.9c-0.1-0.6-0.4-1-0.9-1.4l-0.5-0.4c-0.2-0.2-0.5-0.3-0.6-0.4&#10;&#9;&#9;s-0.4,0-0.6,0.1c-0.2,0.1-0.5,0.4-0.8,0.7l-1.8,2.2l1.7,1.4c0.1-0.2,0.5-0.6,1-1.3l1.1,0.9l-3,3.5l-1-0.8c0.3-0.4,0.5-0.7,0.5-1&#10;&#9;&#9;c0-0.3,0-0.5-0.2-0.8c-0.1-0.2-0.4-0.5-0.7-0.7l-0.4-0.3l-2,2.4c-0.4,0.5-0.8,0.9-1.1,1.2l2,1.6c0.5,0.4,1.1,0.6,1.7,0.5&#10;&#9;&#9;c0.6,0,1.2-0.4,1.9-1.2l0.9,0.8l-2.8,3.1l-7.7-6.4L143.4,29.9z" id="el_pZKnzE5WXx"/>
	<path d="M158.8,37.3c0.2-0.4,0.6-1,1-1.7c0.4-0.7,0.9-1.4,1.4-2.1l0,0c-0.9,0.8-1.7,1.5-2.4,2.1l-0.5,0.4l-2.7,2.2&#10;&#9;&#9;c-0.6,0.5-1.1,0.8-1.4,1c0.3,0.3,0.6,0.7,1,1.1l-1.1,0.9l-2.8-3.3l1-0.8c0.2,0.3,0.4,0.4,0.6,0.5c0.2,0.1,0.4,0.1,0.6,0&#10;&#9;&#9;c0.2-0.1,0.5-0.3,0.9-0.6l5.7-4.6c0.7-0.6,1.2-0.9,1.4-1l-1-1.1l1.1-0.9l2.7,3.2l-3.8,6.9c-0.3,0.5-0.5,1-0.9,1.5&#10;&#9;&#9;c-0.3,0.5-0.6,1-0.8,1.2l0,0c0.1,0,0.5-0.2,1.2-0.4c0.5-0.2,1-0.4,1.3-0.5l7.9-2.8l2.8,3.4l-1,0.8c-0.2-0.3-0.4-0.4-0.6-0.5&#10;&#9;&#9;c-0.2-0.1-0.4-0.1-0.6,0c-0.2,0.1-0.5,0.3-0.9,0.6l-5.4,4.9c-0.5,0.4-0.9,0.8-1.4,1c0.3,0.3,0.6,0.7,1,1.1l-1.1,0.9l-3.4-4.1l1-0.8&#10;&#9;&#9;c0.2,0.3,0.4,0.4,0.6,0.5c0.2,0.1,0.4,0.1,0.6,0s0.5-0.3,0.9-0.6l3-2.7l0.5-0.5c0.9-0.8,1.5-1.4,1.9-1.7l0,0l-10.5,3.7l-1.1-1.4&#10;&#9;&#9;L158.8,37.3z" id="el_8csI9PW70I"/>
	<path d="M165.1,53.8c0.2,0.3,0.3,0.5,0.5,0.6s0.3,0.2,0.6,0.1c0.2,0,0.6-0.2,1-0.4l1.4-0.8l3.1-5.8&#10;&#9;&#9;c0.2-0.3,0.4-0.6,0.6-0.9s0.4-0.5,0.6-0.6l-0.5-0.8l1.3-0.7l2.7,4.9l-1.1,0.6c-0.2-0.4-0.4-0.6-0.6-0.8c-0.2-0.2-0.5-0.2-0.7,0&#10;&#9;&#9;c-0.2,0.1-0.4,0.3-0.5,0.6l-1.4,2.4c0,0.1-0.2,0.3-0.4,0.7c-0.3,0.4-0.5,0.8-0.7,1l0,0c0.1,0,0.2,0,0.3,0c0.1,0,0.3,0,0.4,0&#10;&#9;&#9;c0.7,0,1.2-0.1,1.3-0.1l2.2-0.1c0.9-0.1,1.6-0.1,2,0l0,0l-0.5-0.8l-0.2-0.4l1.3-0.7l2.1,3.7l-1.1,0.6c-0.3-0.4-0.6-0.6-1-0.7&#10;&#9;&#9;c-0.4-0.1-1-0.2-1.8-0.2l-5.4,0.2l-1.9,1.1c-0.6,0.3-1.1,0.6-1.5,0.8c0.2,0.3,0.5,0.8,0.8,1.3l-1.3,0.7l-2.7-4.8L165.1,53.8z" id="el_KUTEWP_moh"/>
	<path d="M172.9,71.2c0.1,0.5,0.3,0.7,0.6,0.8c0.3,0.1,0.7,0,1.3-0.1l4.8-1.4l-0.4-1.3l1.5-0.4l0.4,1.3l0.5-0.1&#10;&#9;&#9;c1.4-0.4,2.6-0.4,3.4,0.1c0.8,0.4,1.4,1.2,1.7,2.4c0.2,0.8,0.2,1.4,0,1.9c-0.2,0.5-0.5,0.8-1,0.9c-0.3,0.1-0.7,0.1-1-0.1&#10;&#9;&#9;c-0.3-0.1-0.5-0.4-0.6-0.8c-0.1-0.3-0.1-0.6,0.1-0.9c0.1-0.2,0.4-0.4,0.7-0.5c0.2,0,0.3-0.1,0.4-0.1c0.1-0.1,0.1-0.3,0-0.5&#10;&#9;&#9;c-0.1-0.5-0.6-0.6-1.3-0.4l-2.2,0.6l0.6,2l-1.4,0.4l-0.6-2l-4.7,1.3c-0.6,0.2-1.2,0.3-1.7,0.4c0.1,0.4,0.3,0.8,0.4,1.3l-1.4,0.4&#10;&#9;&#9;l-1.4-4.9L172.9,71.2z" id="el_dtxXoSecoZ"/>
	<path d="M174.2,79.9c0.3-0.8,0.7-1.5,1.4-2s1.5-0.9,2.4-1c1-0.2,1.9-0.1,2.8,0.2c0.9,0.3,1.6,0.8,2.1,1.4&#10;&#9;&#9;c0.6,0.6,0.9,1.4,1.1,2.3c0.2,0.9,0.1,1.7-0.2,2.5c-0.3,0.8-0.7,1.4-1.4,2c-0.7,0.5-1.5,0.9-2.5,1.1c-1,0.2-2,0.1-2.8-0.1&#10;&#9;&#9;c-0.8-0.3-1.5-0.7-2.1-1.3c-0.5-0.6-0.9-1.4-1-2.3C173.9,81.5,173.9,80.7,174.2,79.9z M176.6,83.5c0.7,0.2,1.5,0.2,2.5,0&#10;&#9;&#9;c1.1-0.2,2-0.5,2.7-0.9c0.7-0.4,1-1,0.9-1.7c-0.1-0.7-0.5-1.1-1.2-1.3c-0.7-0.2-1.5-0.2-2.5-0.1c-1.1,0.2-2,0.5-2.7,1&#10;&#9;&#9;c-0.7,0.5-1,1.1-0.9,1.8C175.5,82.9,175.9,83.4,176.6,83.5z" id="el_3B3-2-o3KH"/>
	<path d="M176.4,88c0,0.5,0.2,0.8,0.4,0.9c0.3,0.1,0.7,0.2,1.3,0.1l3.2-0.2c0.6,0,1.1,0,1.6,0l-0.1-1.3l1.4-0.1&#10;&#9;&#9;c0,0.8,0.1,1.4,0.3,1.9c0.1,0.5,0.3,0.8,0.4,1l0,0.9c-0.2,0-0.4,0.1-0.7,0.1c-0.3,0-0.6,0-0.9,0.1l0,0c1.2,0.8,1.8,1.7,1.9,2.6&#10;&#9;&#9;c0,0.5-0.1,0.9-0.3,1.2c-0.2,0.3-0.6,0.5-1.2,0.5c-0.3,0-0.6-0.1-0.9-0.3c-0.3-0.2-0.4-0.5-0.5-0.9c0-0.3,0.1-0.6,0.2-0.9&#10;&#9;&#9;c0.2-0.3,0.4-0.4,0.8-0.5c0-0.4-0.2-0.7-0.7-1.1c-0.4-0.4-0.8-0.6-1.3-0.7l-3.1,0.2c-0.6,0-1.2,0-1.7,0c0.1,0.4,0.1,0.8,0.1,1.2&#10;&#9;&#9;l-1.4,0.1l-0.2-5L176.4,88z" id="el_oONGiGpUMh"/>
	<path d="M175,109.4c0.8-0.8,1.7-1.4,2.9-1.8c1.1-0.3,2.3-0.4,3.5-0.1c1.2,0.2,2.3,0.7,3.2,1.4c1,0.7,1.7,1.6,2.2,2.8&#10;&#9;&#9;c0.5,1.1,0.6,2.4,0.3,3.7c-0.1,0.5-0.3,1-0.6,1.6s-0.6,1-1,1.5l0,0l0.8,0.1l-0.3,1.4l-4.3-0.9l0.2-1.2c2.1,0.1,3.4-0.7,3.8-2.5&#10;&#9;&#9;c0.2-0.8,0.1-1.6-0.3-2.3s-0.9-1.2-1.7-1.7c-0.7-0.5-1.6-0.8-2.5-1c-1.1-0.2-2-0.3-2.9-0.1c-0.9,0.1-1.6,0.5-2.2,0.9&#10;&#9;&#9;c-0.6,0.5-1,1.1-1.1,2c-0.2,0.8-0.1,1.6,0.1,2.5s0.7,1.6,1.3,2.3l-1,0.7c-1-1-1.6-2.1-1.8-3.2c-0.2-1.1-0.2-2.1,0-3&#10;&#9;&#9;C173.7,111.3,174.2,110.3,175,109.4z" id="el_IH-H8fEICQ"/>
	<path d="M172.1,121.5c1-0.7,2-1,3.2-1.1c1.1,0,2.3,0.1,3.4,0.6c1.1,0.4,2,1,2.8,1.9c0.8,0.9,1.4,1.9,1.6,3.1&#10;&#9;&#9;c0.3,1.2,0.2,2.4-0.3,3.8c-0.5,1.4-1.3,2.4-2.3,3.1s-2.1,1.1-3.3,1.1c-1.2,0.1-2.3-0.1-3.3-0.5c-1-0.4-2-1-2.8-1.9&#10;&#9;&#9;c-0.8-0.9-1.4-1.9-1.7-3.1c-0.3-1.2-0.2-2.4,0.3-3.8C170.4,123.2,171.1,122.2,172.1,121.5z M171.1,127.5c0.3,0.7,0.8,1.3,1.4,1.8&#10;&#9;&#9;c0.7,0.5,1.4,0.9,2.2,1.2c1.7,0.6,3.1,0.9,4.3,0.7c1.2-0.2,2.1-0.9,2.5-2c0.3-0.8,0.3-1.5,0-2.2c-0.3-0.7-0.8-1.3-1.5-1.8&#10;&#9;&#9;s-1.4-0.9-2.2-1.2c-0.8-0.3-1.7-0.5-2.6-0.6c-0.9-0.1-1.8,0-2.5,0.4c-0.8,0.3-1.3,0.9-1.6,1.7C170.8,126.1,170.8,126.8,171.1,127.5&#10;&#9;&#9;z" id="el_A7AaDh7221"/>
	<path d="M171.7,139.1c0.5-0.1,1.1-0.1,1.8-0.2l0,0l-5.1-3c-0.6-0.4-1.1-0.7-1.4-0.9c-0.2,0.4-0.4,0.8-0.7,1.3l-1.3-0.8&#10;&#9;&#9;l2.2-3.7l1.1,0.6c-0.2,0.3-0.3,0.5-0.3,0.7c0,0.2,0,0.4,0.2,0.6c0.1,0.2,0.4,0.4,0.8,0.7l6.3,3.7c0.7,0.4,1.2,0.8,1.4,0.9l0.7-1.3&#10;&#9;&#9;l1.3,0.8l-1.5,2.6l-9.3,1.2c-0.9,0.1-1.6,0.2-2.2,0.2l0,0l5.2,3.1c0.7,0.4,1.2,0.7,1.4,0.9l0.7-1.2l1.3,0.8l-2.2,3.7l-1.1-0.6&#10;&#9;&#9;c0.2-0.3,0.3-0.5,0.3-0.7c0-0.2,0-0.4-0.2-0.6c-0.1-0.2-0.4-0.4-0.8-0.7l-9.1-5.5l0.8-1.4L171.7,139.1z" id="el_EfUVqqtjmj"/>
	<path d="M159.2,146.5c-0.2,0.3-0.3,0.5-0.4,0.7s0,0.4,0.1,0.6s0.4,0.5,0.7,0.8l6.9,5.9l0.6-0.7&#10;&#9;&#9;c0.5-0.6,0.7-1.2,0.5-1.8c-0.1-0.6-0.6-1.3-1.3-1.9l0.8-1l3.2,2.8l-7.4,8.8l-3.4-2.7l0.8-1c0.8,0.6,1.5,1,2.1,1&#10;&#9;&#9;c0.7,0,1.2-0.3,1.7-0.8l0.6-0.7l-6.8-5.8c-0.6-0.5-1.1-0.9-1.3-1.2c-0.2,0.3-0.6,0.7-0.9,1.2l-1.1-0.9l3.6-4.2L159.2,146.5z" id="el_sHNq5JU1ys"/>
	<path d="M152.7,153.7c-0.2,0.2-0.4,0.5-0.5,0.6c-0.1,0.2-0.1,0.4,0,0.6c0.1,0.2,0.3,0.5,0.6,0.9l5,5.3&#10;&#9;&#9;c0.5,0.5,0.9,1,1.1,1.3l1-1l1,1.1l-4,3.7l-0.9-0.9c0.2-0.2,0.4-0.5,0.5-0.6s0.1-0.4,0-0.6c-0.1-0.2-0.3-0.5-0.6-0.9l-5-5.3&#10;&#9;&#9;c-0.5-0.5-0.9-1-1.1-1.3c-0.3,0.3-0.6,0.6-1,1l-1-1.1l4-3.7L152.7,153.7z" id="el_SQl6kprNQ6i"/>
	<path d="M148.1,166.1c0.5,0.1,1.1,0.3,1.7,0.6l0,0l-3.5-4.8c-0.4-0.6-0.7-1.1-0.9-1.4c-0.3,0.3-0.7,0.6-1.1,0.9&#10;&#9;&#9;l-0.9-1.2l3.5-2.5l0.7,1c-0.3,0.2-0.5,0.4-0.6,0.6c-0.1,0.2-0.1,0.4-0.1,0.6c0.1,0.2,0.2,0.6,0.5,1l4.3,5.9&#10;&#9;&#9;c0.5,0.7,0.8,1.2,0.9,1.4l1.1-0.9l0.9,1.2l-2.4,1.7l-9-2.6c-0.8-0.3-1.5-0.5-2.1-0.7l0,0l3.5,4.9c0.5,0.7,0.8,1.1,0.9,1.4l1.1-0.9&#10;&#9;&#9;l0.9,1.2L144,176l-0.7-1c0.3-0.2,0.5-0.4,0.6-0.6c0.1-0.2,0.1-0.4,0.1-0.6c0-0.2-0.2-0.6-0.5-1l-6.2-8.6l1.3-0.9L148.1,166.1z" id="el_0dlS2fUUIT4"/>
	<path d="M133.9,167.8c1.2,0.6,2.2,1.7,3,3.3l2,4.1c0.3,0.6,0.5,1.2,0.7,1.6l1.3-0.7l0.6,1.3l-4.9,2.4l-0.5-1.1&#10;&#9;&#9;c0.3-0.2,0.5-0.3,0.6-0.4c0.1-0.1,0.2-0.3,0.2-0.6c0-0.2-0.1-0.6-0.3-1l-2.3-4.7c-1.2-2.4-2.7-3.2-4.6-2.3&#10;&#9;&#9;c-0.9,0.4-1.5,1.1-1.7,1.9c-0.2,0.9,0,1.9,0.6,3.1l2.2,4.5c0.4,0.8,0.6,1.3,0.7,1.6l1.3-0.7l0.6,1.3l-4,1.9l-0.5-1.1&#10;&#9;&#9;c0.3-0.2,0.5-0.3,0.6-0.4c0.1-0.1,0.2-0.3,0.2-0.6c0-0.2-0.1-0.6-0.3-1l-2.1-4.3c-0.9-1.9-1.1-3.4-0.7-4.7c0.5-1.3,1.4-2.2,2.9-3&#10;&#9;&#9;C131.2,167.4,132.7,167.2,133.9,167.8z" id="el_C9tgEF9Zm2G"/>
	<path d="M123,172.8c-0.3,0.1-0.6,0.2-0.7,0.3c-0.2,0.1-0.2,0.3-0.3,0.5c0,0.2,0,0.6,0.2,1.1l2.1,7&#10;&#9;&#9;c0.2,0.7,0.3,1.2,0.4,1.7l1.3-0.5l0.4,1.4l-9.1,2.7l-1.2-3.5l1.2-0.4c0.3,0.9,0.7,1.5,1.2,1.7s1.1,0.2,1.7,0l0.7-0.2&#10;&#9;&#9;c0.3-0.1,0.5-0.2,0.7-0.3s0.2-0.3,0.3-0.6s0-0.6-0.2-1.1l-0.8-2.7l-2.1,0.6c0.1,0.2,0.3,0.7,0.5,1.6l-1.4,0.4l-1.3-4.4l1.2-0.4&#10;&#9;&#9;c0.1,0.5,0.3,0.8,0.5,1c0.2,0.2,0.5,0.3,0.7,0.3c0.3,0,0.6-0.1,1-0.2l0.5-0.2l-0.9-3c-0.2-0.7-0.3-1.2-0.4-1.6l-2.4,0.7&#10;&#9;&#9;c-0.6,0.2-1.1,0.5-1.4,1.1c-0.3,0.5-0.3,1.3-0.1,2.2l-1.2,0.4l-1.1-4l9.6-2.9L123,172.8z" id="el_7zdhVg7edJN"/>
	<path d="M111.9,176.1c-0.3,0.1-0.6,0.1-0.8,0.2c-0.2,0.1-0.3,0.3-0.4,0.5c-0.1,0.2-0.1,0.6,0,1.1l0.9,7.2&#10;&#9;&#9;c0.1,0.7,0.1,1.3,0.1,1.7l1.4-0.2l0.2,1.5l-5.5,0.7c-1.6,0.2-2.9,0.1-4.1-0.4c-1.2-0.5-2.1-1.2-2.7-2.1c-0.7-0.9-1.1-1.9-1.2-3&#10;&#9;&#9;c-0.1-1.1,0-2.2,0.3-3.3c0.4-1.1,1.1-2,2.1-2.9c1-0.8,2.3-1.3,4-1.5l5.4-0.7L111.9,176.1z M104,177.9c-0.5,0.5-0.9,1.2-1.1,2&#10;&#9;&#9;c-0.2,0.8-0.2,1.6-0.1,2.5c0.3,1.9,0.8,3.3,1.7,4.1s2.1,1.1,3.5,0.9c0.4-0.1,0.7-0.2,0.9-0.4c0.2-0.2,0.2-0.7,0.1-1.3l-1-7.3&#10;&#9;&#9;c-0.1-0.7-0.1-1.3-0.1-1.7c-0.1,0-0.2,0-0.4,0.1l-0.8,0.1c-0.2,0-0.4,0-0.6,0.1C105.3,177.1,104.6,177.4,104,177.9z" id="el_TL_IYVDrUoH"/>
	<path d="M88.1,177.6c-0.3,0-0.6,0-0.8,0c-0.2,0-0.3,0.2-0.5,0.4c-0.1,0.2-0.2,0.6-0.3,1l-1.2,7.2&#10;&#9;&#9;c-0.1,0.7-0.2,1.3-0.4,1.7l1.4,0.2l-0.2,1.4l-5.4-0.9l0.2-1.2c0.3,0,0.6,0,0.8,0c0.2,0,0.3-0.2,0.5-0.4c0.1-0.2,0.2-0.6,0.3-1&#10;&#9;&#9;l0.5-2.9l-5.2-0.9l-0.5,2.7c-0.1,0.8-0.3,1.4-0.4,1.7l1.4,0.2l-0.2,1.4l-5.4-0.9l0.2-1.2c0.3,0,0.6,0,0.8,0c0.2,0,0.3-0.2,0.5-0.4&#10;&#9;&#9;c0.1-0.2,0.2-0.6,0.3-1l1.2-7.2c0.1-0.7,0.2-1.3,0.4-1.7c-0.4,0-0.9-0.1-1.4-0.2l0.2-1.4l5.4,0.9l-0.2,1.2c-0.3,0-0.6,0-0.8,0&#10;&#9;&#9;c-0.2,0-0.3,0.2-0.5,0.4c-0.1,0.2-0.2,0.6-0.3,1l-0.5,3l5.2,0.8l0.5-2.8c0.1-0.7,0.2-1.3,0.4-1.7c-0.4,0-0.9-0.1-1.4-0.2l0.2-1.4&#10;&#9;&#9;l5.4,0.9L88.1,177.6z" id="el_iR0Y4r7CSWx"/>
	<path d="M73.4,174.8c-0.3-0.1-0.6-0.1-0.8-0.1s-0.4,0.1-0.5,0.3c-0.2,0.2-0.3,0.5-0.5,1l-2.4,6.9&#10;&#9;&#9;c-0.2,0.7-0.4,1.2-0.6,1.6l1.4,0.4l-0.5,1.4l-9-3.1l1.1-3.5l1.2,0.4c-0.3,0.9-0.3,1.6,0,2.1c0.3,0.5,0.8,0.8,1.4,1l0.7,0.2&#10;&#9;&#9;c0.3,0.1,0.5,0.1,0.7,0.1c0.2,0,0.4-0.1,0.5-0.3c0.2-0.2,0.3-0.5,0.5-1l0.9-2.7l-2.1-0.7c-0.1,0.2-0.2,0.7-0.5,1.6l-1.4-0.5&#10;&#9;&#9;l1.5-4.4l1.2,0.4c-0.2,0.5-0.2,0.9-0.1,1.1s0.2,0.5,0.4,0.6c0.2,0.1,0.5,0.3,0.9,0.4l0.5,0.1l1-2.9c0.2-0.6,0.4-1.2,0.6-1.6&#10;&#9;&#9;l-2.4-0.8c-0.6-0.2-1.2-0.2-1.8,0.1c-0.6,0.3-1,0.9-1.3,1.8l-1.2-0.4l1.4-3.9l9.5,3.2L73.4,174.8z" id="el_Xbat7jZVdiD"/>
	<path d="M63.2,171.4c-0.3-0.2-0.6-0.2-0.9-0.1c-0.3,0.1-0.5,0.2-0.8,0.4c-0.2,0.2-0.6,0.5-1,0.8l-8,7.3l-1.2-0.6&#10;&#9;&#9;l1.2-11.1c0-0.3,0.1-0.6,0.1-1c0.1-0.4,0.2-0.7,0.2-0.9c-0.4-0.2-0.7-0.3-1-0.5l0.7-1.3l4.5,2.3l-0.6,1.1c-0.5-0.3-0.9-0.2-1.2,0.3&#10;&#9;&#9;c-0.1,0.2-0.2,0.5-0.2,0.9l-0.1,1.1l3.7,1.8l0.7-0.7c0.1-0.1,0.3-0.2,0.5-0.5s0.5-0.5,0.7-0.6c-0.4-0.2-0.8-0.3-1.2-0.6l0.7-1.4&#10;&#9;&#9;l3.6,1.9L63.2,171.4z M54.9,171.7l-0.3,2.5c-0.1,1.1-0.3,2-0.6,2.6l0,0c0.6-0.7,1.2-1.4,1.8-1.9l1.9-1.8L54.9,171.7z" id="el_wveWy2nhWUD"/>
	<path d="M51.5,165.2c-0.3-0.2-0.5-0.3-0.7-0.4c-0.2,0-0.4,0-0.6,0.1c-0.2,0.1-0.5,0.4-0.8,0.8l-4.2,5.9&#10;&#9;&#9;c-0.4,0.6-0.8,1-1.1,1.3l1.2,0.8l-0.9,1.2l-4.4-3.2l0.7-1c0.3,0.2,0.5,0.3,0.7,0.4c0.2,0,0.4,0,0.6-0.1c0.2-0.1,0.5-0.4,0.8-0.8&#10;&#9;&#9;l4.2-5.9c0.4-0.6,0.7-1,1-1.3l-2.1-1.5c-0.6-0.4-1.3-0.6-1.9-0.4c-0.6,0.2-1.3,0.7-1.9,1.5l-1-0.7l2.7-3.6l8.2,5.9L51.5,165.2z" id="el_J6QMkRMBB9l"/>
	<path d="M41.5,157.6c-0.3-0.2-0.5-0.4-0.7-0.4c-0.2-0.1-0.4-0.1-0.6,0c-0.2,0.1-0.5,0.3-0.8,0.7l-6.2,6.7l0.6,0.6&#10;&#9;&#9;c0.6,0.5,1.2,0.7,1.8,0.6c0.6-0.1,1.3-0.5,2-1.2l0.9,0.9l-3,3.1l-8.4-7.8l2.8-3.2l0.9,0.9c-0.7,0.7-1,1.4-1.1,2.1s0.2,1.2,0.7,1.7&#10;&#9;&#9;l0.7,0.6l6.1-6.5c0.6-0.6,1-1,1.2-1.2c-0.3-0.3-0.7-0.6-1.2-1l1-1.1l4.1,3.8L41.5,157.6z" id="el_JSM1nzbiSUx"/>
	<path d="M34.4,151.1c-0.2-0.3-0.4-0.4-0.6-0.5s-0.4-0.1-0.6-0.1s-0.6,0.2-0.9,0.5l-5.8,4.5c-0.6,0.4-1,0.8-1.4,1&#10;&#9;&#9;l0.9,1.1l-1.2,0.9l-3.3-4.3l1-0.8c0.2,0.3,0.4,0.4,0.6,0.5s0.4,0.1,0.6,0.1c0.2-0.1,0.6-0.2,0.9-0.5l2.3-1.8l-3.2-4.1l-2.2,1.7&#10;&#9;&#9;c-0.7,0.5-1.1,0.8-1.4,1l0.9,1.1l-1.2,0.9l-3.3-4.3l1-0.8c0.2,0.3,0.4,0.4,0.6,0.5c0.2,0.1,0.4,0.1,0.6,0.1&#10;&#9;&#9;c0.2-0.1,0.6-0.2,0.9-0.5l5.8-4.5c0.6-0.4,1-0.8,1.4-1c-0.3-0.3-0.6-0.7-0.9-1.1l1.2-0.9l3.3,4.3l-1,0.8c-0.2-0.3-0.4-0.4-0.6-0.5&#10;&#9;&#9;s-0.4-0.1-0.6-0.1c-0.2,0.1-0.6,0.2-0.9,0.5l-2.4,1.9l3.2,4.1l2.2-1.7c0.6-0.4,1-0.8,1.4-1c-0.3-0.3-0.6-0.7-0.9-1.1l1.2-0.9&#10;&#9;&#9;l3.3,4.3L34.4,151.1z" id="el_TT1mCklCXoh"/>
	<path d="M24.8,136.5c-0.1,1.2-0.4,2.2-1.1,3.2c-0.7,1-1.5,1.7-2.6,2.3c-1.1,0.6-2.2,0.9-3.4,1&#10;&#9;&#9;c-1.2,0.1-2.3-0.2-3.4-0.7s-1.9-1.5-2.6-2.7c-0.2-0.4-0.4-1-0.6-1.6c-0.1-0.6-0.2-1.2-0.2-1.8l0,0l-0.7,0.4l-0.7-1.3l3.9-2.1&#10;&#9;&#9;l0.6,1.1c-1.7,1.3-2.1,2.7-1.3,4.3c0.4,0.7,1,1.3,1.7,1.5c0.7,0.3,1.5,0.4,2.4,0.2c0.9-0.1,1.7-0.4,2.6-0.9c1-0.5,1.7-1.1,2.3-1.8&#10;&#9;&#9;c0.6-0.7,1-1.4,1.1-2.1c0.1-0.7,0-1.5-0.4-2.2c-0.4-0.7-0.9-1.3-1.7-1.8c-0.7-0.5-1.5-0.8-2.4-0.9l0.3-1.2c1.4,0.2,2.5,0.6,3.4,1.3&#10;&#9;&#9;c0.9,0.7,1.5,1.4,2,2.3C24.6,134.2,24.9,135.3,24.8,136.5z" id="el_WdL_d_M-XH1"/>
	<path d="M19.9,128.9c-0.1-0.3-0.3-0.5-0.5-0.7s-0.5-0.2-0.8-0.3c-0.3,0-0.7,0-1.3-0.1l-10.8-0.1L6,126.5l8.4-7.3&#10;&#9;&#9;c0.2-0.2,0.5-0.4,0.8-0.6s0.6-0.4,0.8-0.5c-0.2-0.4-0.3-0.7-0.4-1l1.4-0.5l1.7,4.8l-1.2,0.4c-0.2-0.6-0.5-0.8-1-0.6&#10;&#9;&#9;c-0.2,0.1-0.5,0.3-0.8,0.5l-0.9,0.7l1.4,3.9l0.9,0c0.1,0,0.4,0,0.7,0c0.4,0,0.7,0,0.9,0c-0.2-0.4-0.3-0.8-0.5-1.3l1.4-0.5l1.4,3.8&#10;&#9;&#9;L19.9,128.9z M13.7,123.4l-1.9,1.6c-0.9,0.7-1.6,1.2-2.2,1.5l0,0c0.9-0.1,1.8-0.2,2.6-0.2l2.6,0L13.7,123.4z" id="el_IkEH7iI_XEJ"/>
	<path d="M15.7,116.3c-0.1-0.3-0.2-0.6-0.3-0.7c-0.1-0.2-0.3-0.3-0.5-0.3c-0.2-0.1-0.6,0-1.1,0l-7.2,1.3&#10;&#9;&#9;c-0.7,0.1-1.3,0.2-1.7,0.2l0.3,1.4l-1.4,0.3l-1-5.3c-0.3-1.7-0.3-3.1,0.2-4.1c0.4-1,1.3-1.7,2.7-1.9c0.9-0.2,1.7,0,2.4,0.4&#10;&#9;&#9;c0.8,0.4,1.4,1.2,1.9,2.2l0,0c0-0.2,0.2-0.5,0.3-0.8s0.4-0.5,0.6-0.7l1.1-1.1c0.6-0.5,1-1,1.2-1.3c0.2-0.3,0.3-0.7,0.2-1.1l1.2-0.2&#10;&#9;&#9;l0.6,3.1c-0.1,0.2-0.3,0.5-0.5,0.8c-0.2,0.3-0.6,0.6-1,0.9l-2,1.8c-0.4,0.4-0.8,0.7-0.9,1l0.2,1l2-0.4c0.7-0.1,1.3-0.2,1.7-0.2&#10;&#9;&#9;c-0.1-0.4-0.2-0.9-0.4-1.6l1.4-0.3l1,5.5L15.7,116.3z M8.5,110.2c-0.5-0.4-1.3-0.5-2.3-0.3c-1,0.2-1.7,0.6-1.9,1.2&#10;&#9;&#9;C4,111.7,4,112.3,4.1,113c0.1,0.4,0.2,0.7,0.5,0.9c0.2,0.2,0.6,0.2,1.3,0.1l3.8-0.7c0-0.4-0.1-0.7-0.1-0.9&#10;&#9;&#9;C9.4,111.3,9,110.6,8.5,110.2z" id="el_ex793ACdz_4"/>
	<path d="M13.5,103.7c0-0.3-0.1-0.6-0.2-0.8s-0.2-0.3-0.5-0.4c-0.2-0.1-0.6-0.1-1.1-0.1l-7.3,0.3c-0.7,0-1.3,0-1.7,0&#10;&#9;&#9;l0.1,1.4l-1.5,0.1l-0.3-9.5l3.7-0.2l0,1.3c-0.9,0-1.6,0.3-1.9,0.7c-0.3,0.5-0.5,1-0.4,1.6l0,0.7c0,0.3,0.1,0.5,0.1,0.7&#10;&#9;&#9;c0.1,0.2,0.2,0.3,0.5,0.4s0.6,0.1,1.1,0.1l2.8-0.1L7,97.6c-0.2,0-0.8,0.1-1.6,0.1l-0.1-1.5l4.6-0.2l0,1.3c-0.5,0-0.9,0.1-1.1,0.3&#10;&#9;&#9;c-0.2,0.2-0.4,0.4-0.4,0.6c-0.1,0.3-0.1,0.6-0.1,1l0,0.5l3.1-0.1c0.7,0,1.2,0,1.7,0l-0.1-2.5c0-0.6-0.3-1.2-0.7-1.6&#10;&#9;&#9;c-0.5-0.4-1.2-0.6-2.1-0.6l0-1.2l4.2-0.1l0.4,10L13.5,103.7z" id="el_DMzmN-2hKVT"/>
	<path d="M14.2,82.4c0.1-0.3,0.1-0.6,0.1-0.8c0-0.2-0.1-0.4-0.3-0.5c-0.2-0.1-0.5-0.3-1-0.4l-7.1-1.6&#10;&#9;&#9;c-0.7-0.2-1.2-0.3-1.7-0.5l-0.3,1.4l-1.4-0.3l1.2-5.3l1.2,0.3c-0.1,0.3-0.1,0.6-0.1,0.8c0,0.2,0.1,0.4,0.3,0.5&#10;&#9;&#9;c0.2,0.1,0.5,0.3,1,0.4l7.1,1.6c0.7,0.2,1.2,0.3,1.6,0.4l0.6-2.5c0.2-0.7,0-1.4-0.4-1.9c-0.4-0.5-1.1-0.9-2.1-1.1l0.3-1.2l4.4,1.1&#10;&#9;&#9;l-2.2,9.9L14.2,82.4z" id="el_vKh_6trAwFi"/>
	<path d="M16.8,71.5c0.1-0.3,0.2-0.6,0.2-0.8c0-0.2-0.1-0.4-0.3-0.5s-0.5-0.4-1-0.5l-6.8-2.6c-0.7-0.3-1.2-0.5-1.6-0.7&#10;&#9;&#9;l-0.5,1.4l-1.4-0.5l3.4-8.9l3.5,1.2L12,60.7c-0.9-0.3-1.6-0.4-2.1-0.1c-0.5,0.3-0.8,0.7-1,1.3l-0.2,0.6c-0.1,0.3-0.1,0.5-0.1,0.7&#10;&#9;&#9;c0,0.2,0.1,0.4,0.3,0.5c0.2,0.2,0.5,0.3,0.9,0.5l2.7,1l0.8-2.1c-0.2-0.1-0.7-0.2-1.6-0.5l0.5-1.4l4.3,1.6L16,64.3&#10;&#9;&#9;c-0.5-0.2-0.9-0.2-1.1-0.2s-0.5,0.2-0.7,0.4s-0.3,0.5-0.4,0.9l-0.2,0.5l2.9,1.1c0.6,0.2,1.2,0.5,1.5,0.7l0.9-2.4&#10;&#9;&#9;c0.2-0.6,0.2-1.2,0-1.8c-0.2-0.6-0.8-1-1.7-1.4l0.4-1.2l3.9,1.6L18,72L16.8,71.5z" id="el_33_FRDgZ9DW"/>
	<path d="M20.5,61.4c0.2-0.3,0.2-0.6,0.2-0.9c-0.1-0.3-0.2-0.6-0.3-0.8c-0.2-0.2-0.4-0.6-0.8-1l-7.1-8.2l0.7-1.2l11,1.5&#10;&#9;&#9;c0.3,0,0.6,0.1,1,0.2c0.4,0.1,0.7,0.2,0.9,0.3c0.2-0.4,0.3-0.7,0.5-1l1.3,0.7l-2.5,4.5L24.2,55c0.3-0.5,0.2-0.9-0.2-1.2&#10;&#9;&#9;c-0.2-0.1-0.5-0.2-0.9-0.3L22,53.4l-2,3.6l0.6,0.7c0.1,0.1,0.2,0.3,0.5,0.6s0.4,0.5,0.6,0.7c0.2-0.4,0.4-0.8,0.6-1.2l1.3,0.7&#10;&#9;&#9;l-2,3.5L20.5,61.4z M20.6,53.1l-2.5-0.4c-1.1-0.2-2-0.4-2.6-0.6l0,0c0.7,0.6,1.3,1.2,1.8,1.8l1.7,2L20.6,53.1z" id="el_LdNpeoxhAQp"/>
	<path d="M27.2,49.9c0.2-0.3,0.3-0.5,0.4-0.7s0-0.4-0.1-0.6c-0.1-0.2-0.4-0.5-0.8-0.8L21,43.4c-0.6-0.4-1-0.8-1.3-1.1&#10;&#9;&#9;l-0.8,1.2l-1.2-0.9l3.3-4.3c1.1-1.4,2.1-2.2,3.2-2.6c1.1-0.4,2.2-0.1,3.3,0.7c0.7,0.5,1.1,1.2,1.3,2.1c0.2,0.9,0.1,1.8-0.4,2.9l0,0&#10;&#9;&#9;c0.2-0.1,0.5-0.2,0.8-0.3s0.6-0.1,1,0l1.6,0.1c0.8,0.1,1.4,0.1,1.8,0c0.4-0.1,0.7-0.3,1-0.6l1,0.8l-1.9,2.5C33.3,44,33,44,32.6,44&#10;&#9;&#9;c-0.4,0-0.8,0-1.3-0.1l-2.7-0.3c-0.6-0.1-1-0.1-1.4-0.1l-0.6,0.8l1.6,1.3c0.6,0.4,1,0.8,1.3,1.1c0.2-0.3,0.5-0.8,1-1.3l1.2,0.9&#10;&#9;&#9;l-3.5,4.4L27.2,49.9z M26.9,40.5c-0.1-0.6-0.5-1.3-1.3-1.9c-0.8-0.6-1.5-0.9-2.1-0.7c-0.6,0.2-1.1,0.6-1.5,1.1&#10;&#9;&#9;c-0.3,0.3-0.4,0.7-0.4,0.9c0,0.3,0.3,0.6,0.8,1l3.1,2.4c0.3-0.3,0.5-0.5,0.6-0.7C26.7,41.9,27,41.2,26.9,40.5z" id="el_3YGrLUmeKKj"/>
	<path d="M33.8,32.6c-0.5-0.1-1.1-0.2-1.7-0.3l0,0l4,4.3c0.5,0.5,0.8,1,1.1,1.3c0.3-0.3,0.6-0.6,1-1l1,1.1l-3.2,2.9&#10;&#9;&#9;l-0.8-0.9c0.2-0.2,0.4-0.4,0.5-0.6c0.1-0.2,0.1-0.4,0-0.6c-0.1-0.2-0.3-0.5-0.6-0.9L30,32.5c-0.6-0.6-0.9-1.1-1.1-1.3l-1,1l-1-1.1&#10;&#9;&#9;l2.2-2l9.2,1.5c0.9,0.2,1.6,0.3,2.2,0.4l0,0l-4.1-4.4c-0.6-0.6-0.9-1-1.1-1.3l-1,1l-1-1.1l3.2-2.9l0.8,0.9&#10;&#9;&#9;c-0.2,0.2-0.4,0.4-0.5,0.6c-0.1,0.2-0.1,0.4,0,0.6c0.1,0.2,0.3,0.5,0.6,0.9l7.2,7.8l-1.2,1.1L33.8,32.6z" id="el_o6zCRpkf9FW"/>
	<path d="M46,30.4c0.3-0.2,0.5-0.4,0.6-0.5c0.1-0.2,0.1-0.4,0.1-0.6c0-0.2-0.2-0.6-0.5-1l-4.2-6&#10;&#9;&#9;c-0.4-0.6-0.7-1.1-0.9-1.4l-1.1,0.9L39,20.6l4.5-3.1l0.7,1c-0.3,0.2-0.5,0.4-0.6,0.5c-0.1,0.2-0.1,0.4-0.1,0.6c0,0.2,0.2,0.6,0.5,1&#10;&#9;&#9;l4.2,6c0.4,0.6,0.7,1.1,0.9,1.4c0.3-0.3,0.7-0.6,1.1-0.9l0.8,1.2l-4.5,3.1L46,30.4z" id="el_aAGzQL7gjVd"/>
	<path d="M52.4,18.8c-0.5-0.2-1-0.5-1.6-0.8l0,0l2.8,5.2c0.3,0.6,0.6,1.1,0.7,1.6c0.3-0.2,0.8-0.5,1.2-0.7l0.7,1.3&#10;&#9;&#9;l-3.8,2l-0.6-1.1c0.3-0.2,0.5-0.3,0.6-0.5c0.1-0.1,0.2-0.3,0.2-0.6c0-0.2-0.1-0.6-0.4-1l-3.4-6.4c-0.4-0.8-0.6-1.3-0.7-1.6&#10;&#9;&#9;l-1.3,0.7l-0.7-1.3l2.6-1.4l8.5,3.8c0.8,0.4,1.5,0.7,2,1l0,0l-2.8-5.3c-0.4-0.7-0.6-1.2-0.7-1.5l-1.2,0.7l-0.7-1.3l3.8-2l0.6,1.1&#10;&#9;&#9;c-0.3,0.2-0.5,0.3-0.6,0.5c-0.1,0.1-0.2,0.3-0.2,0.6c0,0.2,0.1,0.6,0.4,1l4.9,9.4l-1.4,0.7L52.4,18.8z" id="el_9Doruk6WV5J"/>
	<path d="M67.1,19.6c-1.1-0.3-2.1-0.8-2.9-1.6c-0.8-0.8-1.4-1.8-1.8-3.1c-0.4-1.1-0.5-2.3-0.3-3.5&#10;&#9;&#9;c0.1-1.2,0.6-2.3,1.3-3.2c0.7-1,1.8-1.6,3.1-2.1c0.5-0.2,1.1-0.3,1.8-0.3c0.7-0.1,1.3,0,1.9,0.1l0,0l-0.3-0.7l1.4-0.4L72.8,9&#10;&#9;&#9;l-1.2,0.4c-0.5-0.9-1.1-1.6-1.9-1.9s-1.6-0.4-2.5-0.1c-0.8,0.3-1.4,0.7-1.8,1.4c-0.4,0.7-0.6,1.4-0.6,2.3c0,0.9,0.1,1.8,0.4,2.7&#10;&#9;&#9;c0.5,1.6,1.3,2.8,2.2,3.6c1,0.8,2.1,1,3.3,0.6c0.4-0.1,0.8-0.3,1.3-0.6c0.5-0.2,0.8-0.5,1.1-0.8l-0.5-1.7c-0.2-0.7-0.4-1.2-0.4-1.7&#10;&#9;&#9;c-0.3,0.1-0.6,0.2-0.9,0.3l-0.5,0.2l-0.4-1.4l4.8-1.5l0.4,1.2c-0.3,0.1-0.5,0.2-0.7,0.4c-0.1,0.1-0.2,0.3-0.2,0.6&#10;&#9;&#9;c0,0.3,0.1,0.6,0.2,1l0.9,2.9L75.3,17c-0.3,0.1-0.5,0.2-0.8,0.4s-0.6,0.4-0.9,0.6c-0.6,0.4-1.1,0.7-1.4,0.9&#10;&#9;&#9;c-0.4,0.2-0.9,0.4-1.4,0.6C69.4,19.8,68.2,19.9,67.1,19.6z" id="el_hHXuBxVN7aI"/>
	<path d="M78.4,17c-0.3-0.2-0.5-0.5-0.6-1c-0.1-0.4,0-0.8,0.2-1.1c0.2-0.3,0.5-0.5,0.9-0.6c0.4-0.1,0.7,0,1,0.2&#10;&#9;&#9;c0.3,0.2,0.5,0.6,0.6,0.9c0.1,0.4,0,0.8-0.2,1.1c-0.2,0.3-0.5,0.5-0.9,0.6C79.1,17.3,78.7,17.2,78.4,17z" id="el_xINTJonJtj2"/>
</g></g>
<g id="el_-LdO4F18c4e_iJTgo6NYc" data-animator-group="true" data-animator-type="2"><g id="el_-LdO4F18c4e">
	
		<linearGradient id="SVGID_1_" gradientUnits="userSpaceOnUse" x1="41.125" y1="133.8402" x2="41.125" y2="102.7354" gradientTransform="matrix(1 0 0 -1 0 211.8898)">
		<stop offset="0" style="stop-color:#3CB9EF"/>
		<stop offset="1" style="stop-color:#1A77DD"/>
	</linearGradient>
	<path d="M26.8,104.4c1.6,0.2,1.8,0.1,2.4-1.4C32.1,95,35,87,37.9,79.1c0.3-0.7,0.6-1.1,1.4-1c1.3,0.1,2.6,0.1,4,0&#10;&#9;&#9;c0.7,0,1,0.2,1.3,0.9c2.2,6,4.3,12,6.5,18c0.8,2.1,1.6,4.3,2.3,6.4c0.3,0.7,0.7,1.2,1.5,1.2c0.5,0,0.6,0.3,0.6,0.7&#10;&#9;&#9;c0,1.1,0,2.2,0,3.3c0,0.5-0.2,0.7-0.7,0.7c-1.1,0-2.3,0-3.4,0c-1.2,0-2.1-0.6-2.6-1.7c-0.7-1.7-1.3-3.4-1.9-5.2&#10;&#9;&#9;c-0.3-0.8-0.7-1.1-1.5-1.1c-2.9,0.1-5.8,0-8.7,0c-0.7,0-1,0.2-1.2,0.9c-0.5,1.6-1.1,3.2-1.7,4.8c-0.6,1.7-1.3,2.2-3.1,2.2&#10;&#9;&#9;c-1.3,0-2.6,0-3.9,0C26.8,107.6,26.8,106,26.8,104.4z M41.2,84.1c-1.3,4.1-2.6,8.2-4,12.4c2.7,0,5.3,0,8,0&#10;&#9;&#9;C43.8,92.3,42.5,88.2,41.2,84.1z" id="el_EpaVUeWvYf8"/>
	
		<linearGradient id="SVGID_2_" gradientUnits="userSpaceOnUse" x1="156.8199" y1="109.6153" x2="156.8199" y2="95.5465" gradientTransform="matrix(1 0 0 -1 0 211.8898)">
		<stop offset="0" style="stop-color:#3CB9EF"/>
		<stop offset="1" style="stop-color:#1A77DD"/>
	</linearGradient>
	<path d="M161.5,116.3c-0.7-0.8-1.5-1.6-2.2-2.4c-1.9-1.9-4.1-3.3-6.5-4.5c-0.3-0.1-0.6-0.5-0.6-0.7c0-2.1,0-4.3,0-6.5&#10;&#9;&#9;c0.1,0,0.2,0,0.3,0c2.6,2.2,5.2,4.5,6.8,7.5c0.9,1.7,1.4,3.6,2,5.4c0.1,0.2,0.1,0.4,0.2,0.6C161.5,116,161.5,116.2,161.5,116.3z" id="el_mxnpZnkVAru"/>
	
		<linearGradient id="SVGID_3_" gradientUnits="userSpaceOnUse" x1="103.9737" y1="133.8648" x2="103.9737" y2="102.609" gradientTransform="matrix(1 0 0 -1 0 211.8898)">
		<stop offset="0" style="stop-color:#3CB9EF"/>
		<stop offset="1" style="stop-color:#1A77DD"/>
	</linearGradient>
	<path d="M88.6,82.8c0-1.7,0-3.2,0-4.8c2.2,0,4.3-0.1,6.5,0c1.3,0.1,2,1,2,2.7c0,3.1,0,6.2,0,9.3c0,0.4,0,0.7,0,1.2&#10;&#9;&#9;c4.7,0,9.2,0,13.9,0c0-0.4,0-0.7,0-1c0-3,0-6.1,0-9.1c0-2.2,0.8-3,3.1-3c1.7,0,3.4,0,5.1,0c0.1,0,0.2,0,0.4,0c0,1.5,0,3.1,0,4.7&#10;&#9;&#9;c-0.3,0-0.7,0-1,0c-1.6,0-1.7,0.1-1.7,1.7c0,7.6,0,15.2,0,22.8c0,2,0,2-2,2c-0.9,0-1.8,0-2.8,0c-0.8,0-1-0.2-1-1c0-3.7,0-7.3,0-11&#10;&#9;&#9;c0-0.4,0-0.7,0-1.2c-0.4,0-0.7-0.1-1-0.1c-4,0-7.9,0-11.9,0c-0.8,0-1,0.2-1,1c0,3.6,0,7.2,0,10.9c0,1.3,0,1.3-1.3,1.3&#10;&#9;&#9;c-1.4,0-2.9,0-4.4,0c0-0.5,0-0.8,0-1.2c0-7.8,0-15.6,0-23.4c0-1.7-0.1-1.8-1.8-1.8C89.2,82.8,88.9,82.8,88.6,82.8z" id="el_eZ3WBfMLUHY"/>
	
		<linearGradient id="SVGID_4_" gradientUnits="userSpaceOnUse" x1="71.1409" y1="134.5197" x2="71.1409" y2="102.0716" gradientTransform="matrix(1 0 0 -1 0 211.8898)">
		<stop offset="0" style="stop-color:#3CB9EF"/>
		<stop offset="1" style="stop-color:#1A77DD"/>
	</linearGradient>
	<path d="M82.5,100.5c0.9,1.3,1.9,2.6,2.9,4c-1.6,1.7-3.4,3-5.5,3.9c-5.6,2.3-11.2,2.2-16.3-1.3&#10;&#9;&#9;c-4.1-2.7-6.2-6.7-6.7-11.6c-0.6-6.5,1.4-11.9,7-15.5c5.6-3.5,11.5-3.3,17.4-0.4c2.2,1.1,3.4,2.9,3.2,5.5c-0.1,0.9,0,1.8,0,2.8&#10;&#9;&#9;c-1.7,0-3.4,0-5.1,0c0-0.4,0-0.7,0-1c0.1-1.5-0.6-2.5-1.9-3.1c-6-2.7-13.7,0.1-14.6,8c-0.5,4.7,1,8.6,5.1,11.2&#10;&#9;&#9;c3.6,2.3,7.4,1.8,11-0.1C80.2,102.2,81.3,101.3,82.5,100.5z" id="el_1uDmX1rtMgT"/>
	
		<linearGradient id="SVGID_5_" gradientUnits="userSpaceOnUse" x1="134.4667" y1="133.8666" x2="134.4667" y2="102.6267" gradientTransform="matrix(1 0 0 -1 0 211.8898)">
		<stop offset="0" style="stop-color:#3CB9EF"/>
		<stop offset="1" style="stop-color:#1A77DD"/>
	</linearGradient>
	<path d="M123.2,82.8c0-1.6,0-3.1,0-4.7c1.1,0,2.1,0,3.1,0c0.9,0,1.8,0,2.8,0c1.7,0,2.4,0.7,2.7,2.3&#10;&#9;&#9;c0.1,0.4,0,0.7,0,1.1c0,7.2,0,14.3,0,21.5c0,1.3,0.2,1.5,1.5,1.5c2,0,3.9,0,5.9,0c1.2,0,1.4-0.2,1.4-1.3c0-1.6-0.3-1.5,1.5-1.5&#10;&#9;&#9;c1.2,0,2.4,0,3.6,0c0,2,0.1,3.9,0,5.8c-0.1,1.1-0.8,1.6-1.9,1.8c-0.5,0.1-0.9,0.1-1.4,0.1c-4.3,0-8.7,0-13,0c-0.5,0-1,0-1.5-0.1&#10;&#9;&#9;c-1.1-0.2-1.7-0.9-1.8-1.9c0-0.4,0-0.9,0-1.3c0-7,0-13.9,0-20.9c0-2.1,0-2.1-2.2-2.2C123.7,82.8,123.5,82.8,123.2,82.8z" id="el_-e-0HyfTwlE"/>
	
		<linearGradient id="SVGID_6_" gradientUnits="userSpaceOnUse" x1="156.5811" y1="119.8969" x2="156.5811" y2="102.8068" gradientTransform="matrix(1 0 0 -1 0 211.8898)">
		<stop offset="0" style="stop-color:#3CB9EF"/>
		<stop offset="1" style="stop-color:#1A77DD"/>
	</linearGradient>
	<path d="M152.1,92c2.2,2.5,4.2,4.9,6.3,7.2c0.1,0.2,0.2,0.4,0.4,0.5c1.9,1.5,2.4,3.5,2.2,5.8c-0.1,1.1,0,2.3,0,3.6&#10;&#9;&#9;c-0.3-0.2-0.5-0.4-0.6-0.5c-2.6-3-5.2-5.9-7.7-8.9c-0.3-0.3-0.5-0.9-0.5-1.3C152.1,96.3,152.1,94.3,152.1,92z" id="el_AWAFznoO15i"/>
	
		<linearGradient id="SVGID_7_" gradientUnits="userSpaceOnUse" x1="156.5375" y1="129.7527" x2="156.5375" y2="112.9287" gradientTransform="matrix(1 0 0 -1 0 211.8898)">
		<stop offset="0" style="stop-color:#3CB9EF"/>
		<stop offset="1" style="stop-color:#1A77DD"/>
	</linearGradient>
	<path d="M152.3,82.1c0.7,0.8,1.5,1.7,2.2,2.5c2,2.3,4,4.6,6,6.9c0.2,0.2,0.4,0.6,0.4,0.9c0,2.1,0,4.2,0,6.5&#10;&#9;&#9;c-0.3-0.2-0.5-0.4-0.6-0.5c-2.6-3-5.2-6-7.8-9c-0.2-0.2-0.4-0.6-0.4-0.9c0-2.1,0-4.2,0-6.3C152.2,82.2,152.3,82.2,152.3,82.1z" id="el_t-hgZzw7Ej0"/>
	
		<linearGradient id="SVGID_8_" gradientUnits="userSpaceOnUse" x1="156.3631" y1="136.839" x2="156.3631" y2="123.0207" gradientTransform="matrix(1 0 0 -1 0 211.8898)">
		<stop offset="0" style="stop-color:#3CB9EF"/>
		<stop offset="1" style="stop-color:#1A77DD"/>
	</linearGradient>
	<path d="M151.8,75.1c2.4,3,5.2,5.1,8.6,6.7c0.2,0.1,0.5,0.4,0.5,0.6c0,2.1,0,4.2,0,6.5&#10;&#9;&#9;C156.5,85.1,152.5,81.2,151.8,75.1z" id="el_MyZi8HZZEiO"/>
</g></g>
</svg>