<svg version="1.1" id="el_Kjf30YWKM" xmlns="http://www.w3.org/2000/svg" xmlns:xlink="http://www.w3.org/1999/xlink" x="0px" y="0px" viewBox="0 0 208 211" enable-background="new 0 0 208.276 211.827" xml:space="preserve"><style>@-webkit-keyframes el_OsFAPWtZbWE_sAm8pktFt_Animation{0%{-webkit-transform: translate(108.47500991821289px, 102.36599731445312px) scale(1.2, 1.2) translate(-108.47500991821289px, -102.36599731445312px);transform: translate(108.47500991821289px, 102.36599731445312px) scale(1.2, 1.2) translate(-108.47500991821289px, -102.36599731445312px);}50%{-webkit-transform: translate(108.47500991821289px, 102.36599731445312px) scale(0.7, 0.7) translate(-108.47500991821289px, -102.36599731445312px);transform: translate(108.47500991821289px, 102.36599731445312px) scale(0.7, 0.7) translate(-108.47500991821289px, -102.36599731445312px);}100%{-webkit-transform: translate(108.47500991821289px, 102.36599731445312px) scale(1.2, 1.2) translate(-108.47500991821289px, -102.36599731445312px);transform: translate(108.47500991821289px, 102.36599731445312px) scale(1.2, 1.2) translate(-108.47500991821289px, -102.36599731445312px);}}@keyframes el_OsFAPWtZbWE_sAm8pktFt_Animation{0%{-webkit-transform: translate(108.47500991821289px, 102.36599731445312px) scale(1.2, 1.2) translate(-108.47500991821289px, -102.36599731445312px);transform: translate(108.47500991821289px, 102.36599731445312px) scale(1.2, 1.2) translate(-108.47500991821289px, -102.36599731445312px);}50%{-webkit-transform: translate(108.47500991821289px, 102.36599731445312px) scale(0.7, 0.7) translate(-108.47500991821289px, -102.36599731445312px);transform: translate(108.47500991821289px, 102.36599731445312px) scale(0.7, 0.7) translate(-108.47500991821289px, -102.36599731445312px);}100%{-webkit-transform: translate(108.47500991821289px, 102.36599731445312px) scale(1.2, 1.2) translate(-108.47500991821289px, -102.36599731445312px);transform: translate(108.47500991821289px, 102.36599731445312px) scale(1.2, 1.2) translate(-108.47500991821289px, -102.36599731445312px);}}@-webkit-keyframes el_mt51t9-iLF_JTkLvhQ0e_Animation{0%{-webkit-transform: translate(108.91634559631348px, 102.63101005554199px) rotate(0deg) translate(-108.91634559631348px, -102.63101005554199px);transform: translate(108.91634559631348px, 102.63101005554199px) rotate(0deg) translate(-108.91634559631348px, -102.63101005554199px);}100%{-webkit-transform: translate(108.91634559631348px, 102.63101005554199px) rotate(-360deg) translate(-108.91634559631348px, -102.63101005554199px);transform: translate(108.91634559631348px, 102.63101005554199px) rotate(-360deg) translate(-108.91634559631348px, -102.63101005554199px);}}@keyframes el_mt51t9-iLF_JTkLvhQ0e_Animation{0%{-webkit-transform: translate(108.91634559631348px, 102.63101005554199px) rotate(0deg) translate(-108.91634559631348px, -102.63101005554199px);transform: translate(108.91634559631348px, 102.63101005554199px) rotate(0deg) translate(-108.91634559631348px, -102.63101005554199px);}100%{-webkit-transform: translate(108.91634559631348px, 102.63101005554199px) rotate(-360deg) translate(-108.91634559631348px, -102.63101005554199px);transform: translate(108.91634559631348px, 102.63101005554199px) rotate(-360deg) translate(-108.91634559631348px, -102.63101005554199px);}}#el_Kjf30YWKM *{-webkit-animation-duration: 6s;animation-duration: 6s;-webkit-animation-iteration-count: infinite;animation-iteration-count: infinite;-webkit-animation-timing-function: cubic-bezier(0, 0, 1, 1);animation-timing-function: cubic-bezier(0, 0, 1, 1);}#el_tL_aFlWh6T{fill: #7CC447;}#el_SUmJecsC3V{fill: #7CC447;}#el_XPF1AOEzIX{fill: #7CC447;}#el_6r1iNyUbbI{fill: #7CC447;}#el_xJU2QGhl5s{fill: #7CC447;}#el_GKUVKzlLni{fill: #7CC447;}#el_44xeV1rUdE{fill: #7CC447;}#el_Qi5M2x0U6-{fill: #7CC447;}#el_RAOWHfd7ja{fill: #7CC447;}#el_eAjr6SfASl{fill: #7CC447;}#el_WPGCTRswv1{fill: #7CC447;}#el_qHee2zk797{fill: #7CC447;}#el_ZCoZDlIYAz{fill: #7CC447;}#el_02ItKnzXy0{fill: #7CC447;}#el_lmSDL5O4Ux2{fill: #7CC447;}#el_B2Y-AEq97ox{fill: #7CC447;}#el_M7k-ubB5A0g{fill: #7CC447;}#el_xAckFBKvYkG{fill: #7CC447;}#el_5VviUQ988px{fill: #7CC447;}#el_HkQ8B8_rbWL{fill: #7CC447;}#el_SMOtou-DwKZ{fill: #7CC447;}#el_-2Hffjc_FDp{fill: #7CC447;}#el_x023ud6PP6C{fill: #7CC447;}#el_UERfYEsHx3s{fill: #7CC447;}#el_54EipiD6NTG{fill: #7CC447;}#el_YABjY---Kva{fill: #7CC447;}#el_NyPQeEZ0Qdt{fill: #7CC447;}#el_gpNWZoGzQ7J{fill: #7CC447;}#el_gu4CAnGi9NE{fill: #7CC447;}#el_EWS06Snwg_B{fill: #7CC447;}#el_Kr8c2PtD3B9{fill: url(#SVGID_1_);}#el_WTkPv5M6sPT{fill: url(#SVGID_2_);}#el_obv-wG0t4jA{fill: url(#SVGID_3_);}#el_IfHLNhp1LaP{fill: url(#SVGID_4_);}#el_UzwkyRqLJGn{fill: url(#SVGID_5_);}#el_DzyTDkjP_K5{fill: url(#SVGID_6_);}#el_xVEwNuUq8Nl{fill: url(#SVGID_7_);}#el_BZsK1kLMggK{fill: url(#SVGID_8_);}#el_mt51t9-iLF_JTkLvhQ0e{-webkit-animation-name: el_mt51t9-iLF_JTkLvhQ0e_Animation;animation-name: el_mt51t9-iLF_JTkLvhQ0e_Animation;-webkit-transform: translate(108.91634559631348px, 102.63101005554199px) rotate(0deg) translate(-108.91634559631348px, -102.63101005554199px);transform: translate(108.91634559631348px, 102.63101005554199px) rotate(0deg) translate(-108.91634559631348px, -102.63101005554199px);}#el_OsFAPWtZbWE_sAm8pktFt{-webkit-animation-name: el_OsFAPWtZbWE_sAm8pktFt_Animation;animation-name: el_OsFAPWtZbWE_sAm8pktFt_Animation;-webkit-transform: translate(108.47500991821289px, 102.36599731445312px) scale(1.2, 1.2) translate(-108.47500991821289px, -102.36599731445312px);transform: translate(108.47500991821289px, 102.36599731445312px) scale(1.2, 1.2) translate(-108.47500991821289px, -102.36599731445312px);}</style>
<g id="el_mt51t9-iLF_JTkLvhQ0e" data-animator-group="true" data-animator-type="1"><g id="el_mt51t9-iLF">
	<path d="M120.289,24.513l-6.634-0.717l-1.441,3.056l-3.508-0.379l7.792-16.034l3.89,0.42l4.188,17.329l-3.532-0.381&#10;&#9;&#9;L120.289,24.513z M118.013,14.514l-3.163,6.708l4.821,0.521L118.013,14.514z" id="el_tL_aFlWh6T"/>
	<path d="M135.509,17.576c3.156,1.002,4.761,3.324,4.546,6.378l-3.454-1.097c-0.024-1.191-0.653-2.146-1.979-2.567&#10;&#9;&#9;c-1.784-0.566-3.402,0.405-4.187,2.875c-0.785,2.47-0.016,4.175,1.768,4.741c1.327,0.421,2.339,0.088,3.091-0.932l3.454,1.097&#10;&#9;&#9;c-1.543,2.481-4.237,3.59-7.394,2.587c-3.66-1.162-5.454-4.552-4.19-8.532S131.849,16.414,135.509,17.576z" id="el_SUmJecsC3V"/>
	<path d="M150.062,23.692c1.873,1.028,2.671,2.616,2.834,3.965l0.913-1.662l2.967,1.628l-6.399,11.657l-2.967-1.628&#10;&#9;&#9;l0.936-1.705c-1.249,0.629-3.06,0.785-4.911-0.231c-2.946-1.617-3.974-5.331-1.976-8.971&#10;&#9;&#9;C143.456,23.105,147.095,22.063,150.062,23.692z M149.398,26.696c-1.578-0.866-3.719-0.508-4.932,1.701s-0.412,4.292,1.166,5.159&#10;&#9;&#9;c1.62,0.889,3.763,0.478,4.976-1.732S151.019,27.586,149.398,26.696z" id="el_XPF1AOEzIX"/>
	<path d="M165.182,33.817c1.333,1.136,2.083,2.847,1.968,4.388l4.093-4.804l2.593,2.21l-11.517,13.516l-2.594-2.21&#10;&#9;&#9;l1.276-1.498c-1.396,0.418-3.151,0.184-4.741-1.17c-2.575-2.194-2.831-6.038-0.138-9.198&#10;&#9;&#9;C158.815,31.892,162.588,31.608,165.182,33.817z M163.907,36.609c-1.37-1.167-3.539-1.25-5.172,0.668&#10;&#9;&#9;c-1.634,1.917-1.271,4.119,0.099,5.286c1.406,1.199,3.587,1.229,5.222-0.689S165.313,37.807,163.907,36.609z" id="el_6r1iNyUbbI"/>
	<path d="M167.492,55.71c-2.402-3.027-2.043-6.897,1.228-9.494c3.29-2.612,7.078-2.125,9.525,0.958&#10;&#9;&#9;c2.388,3.008,2.025,6.759-1.077,9.221c-0.338,0.269-0.692,0.519-1.075,0.731l-6.044-7.614c-1.437,1.355-1.466,3.095-0.421,4.411&#10;&#9;&#9;c0.895,1.128,1.952,1.3,2.916,1.087l2.253,2.838C172.433,58.806,169.537,58.285,167.492,55.71z M171.832,48.128l3.924,4.944&#10;&#9;&#9;c1.343-1.127,1.342-2.904,0.268-4.257C175.024,47.555,173.425,47.201,171.832,48.128z" id="el_xJU2QGhl5s"/>
	<path d="M187.272,75.716c1.928-0.861,2.457-2.384,1.733-4.006c-0.734-1.644-2.221-2.267-4.149-1.406l-6.705,2.993&#10;&#9;&#9;l-1.37-3.067l6.705-2.993c1.928-0.86,2.457-2.384,1.733-4.005c-0.743-1.666-2.23-2.289-4.159-1.429l-6.705,2.993l-1.37-3.068&#10;&#9;&#9;l12.139-5.418l1.369,3.068l-1.468,0.655c1.35,0.317,2.562,1.326,3.237,2.838c0.841,1.884,0.725,3.802-0.415,5.31&#10;&#9;&#9;c1.732,0.172,3.389,1.352,4.181,3.126c1.301,2.914,0.38,5.795-2.973,7.292l-7.121,3.179l-1.37-3.067L187.272,75.716z" id="el_GKUVKzlLni"/>
	<path d="M196.588,90.922l0.6,3.526l-20.693-4.831l-0.6-3.526l7.015,1.728l11.886-7.429l0.632,3.715l-8.583,4.943&#10;&#9;&#9;L196.588,90.922z" id="el_44xeV1rUdE"/>
	<path d="M194.144,110.38l0.177-1.502l2.741,0.323l-0.177,1.501l0.667,0.079c3.241,0.382,4.527,2.394,3.994,6.101&#10;&#9;&#9;l-2.812-0.331c0.238-1.615-0.221-2.226-1.699-2.399l-0.548-0.064l-0.272,2.312l-2.741-0.323l0.272-2.312l-10.463-1.232l0.399-3.385&#10;&#9;&#9;L194.144,110.38z" id="el_Qi5M2x0U6-"/>
	<path d="M181.11,122.098c1.013-3.704,4.372-5.795,8.4-4.693c4.051,1.108,5.829,4.704,4.815,8.408&#10;&#9;&#9;c-1.013,3.704-4.375,5.894-8.425,4.786C181.873,129.497,180.091,125.825,181.11,122.098z M183.935,122.87&#10;&#9;&#9;c-0.469,1.713,0.332,3.699,2.878,4.395c2.569,0.703,4.233-0.559,4.702-2.271s-0.334-3.6-2.903-4.302&#10;&#9;&#9;C186.064,119.995,184.409,121.134,183.935,122.87z" id="el_RAOWHfd7ja"/>
	<path d="M177.204,133.552l1.387-3.061l12.113,5.486l-1.386,3.061l-1.88-0.852c0.9,1.33,1.134,2.965,0.372,4.648&#10;&#9;&#9;l-3.214-1.456l0.366-0.81c0.822-1.814,0.617-3.225-1.722-4.284L177.204,133.552z" id="el_eAjr6SfASl"/>
	<path d="M176.349,165.071c-2.521,2.733-6.035,3.606-9.322,2.109l2.619-2.84c1.719,0.508,3.277-0.014,4.497-1.337&#10;&#9;&#9;c1.985-2.152,1.83-5.134-0.675-7.444c-2.487-2.293-5.49-2.223-7.474-0.07c-1.22,1.322-1.614,2.918-0.951,4.606l-2.619,2.84&#10;&#9;&#9;c-1.775-3.172-1.172-6.728,1.349-9.462c3.269-3.545,8.351-3.854,12.038-0.453C179.496,156.419,179.618,161.526,176.349,165.071z" id="el_WPGCTRswv1"/>
	<path d="M150.449,164.865c3.92-2.643,9.108-1.856,11.925,2.321c2.803,4.159,1.585,9.263-2.335,11.905&#10;&#9;&#9;c-3.959,2.669-9.088,1.844-11.892-2.315C145.331,172.599,146.509,167.521,150.449,164.865z M152.126,167.353&#10;&#9;&#9;c-2.507,1.689-3.018,4.667-1.113,7.493c1.905,2.825,4.83,3.429,7.336,1.739c2.527-1.703,3.064-4.642,1.16-7.467&#10;&#9;&#9;C157.604,166.293,154.653,165.65,152.126,167.353z" id="el_qHee2zk797"/>
	<path d="M134.479,191.179l-5.962-15.679l3.14-1.194l11.196,8.041l-4.086-10.745l3.14-1.193l5.962,15.679&#10;&#9;&#9;l-3.14,1.194l-11.205-8.063l4.094,10.767L134.479,191.179z" id="el_ZCoZDlIYAz"/>
	<path d="M129.602,192.362l-12.125,2l-0.441-2.676l4.405-0.727l-2.285-13.854l3.315-0.547l2.285,13.854l4.405-0.727&#10;&#9;&#9;L129.602,192.362z" id="el_02ItKnzXy0"/>
	<path d="M113.371,194.481l-3.358,0.115l-0.575-16.743l3.358-0.115L113.371,194.481z" id="el_lmSDL5O4Ux2"/>
	<path d="M90.508,193.145l1.962-16.66l3.337,0.394l6.21,12.307l1.345-11.417l3.337,0.394l-1.962,16.66l-3.337-0.394&#10;&#9;&#9;l-6.208-12.33l-1.348,11.44L90.508,193.145z" id="el_B2Y-AEq97ox"/>
	<path d="M84.594,191.71l-3.172-1.104l3.408-9.789c0.757-2.176-0.026-3.719-2.043-4.421&#10;&#9;&#9;c-2.04-0.71-3.612,0.013-4.37,2.188l-3.408,9.788l-3.195-1.112l3.4-9.766c1.452-4.169,5.152-5.167,8.62-3.96&#10;&#9;&#9;c3.467,1.207,5.612,4.24,4.16,8.409L84.594,191.71z" id="el_M7k-ubB5A0g"/>
	<path d="M59.657,177.542l5.516,3.171l2.093-3.643l-4.891-2.812l1.328-2.311l4.891,2.812l2.213-3.851l-5.515-3.17&#10;&#9;&#9;l1.364-2.373l8.429,4.846l-8.362,14.548l-8.429-4.845L59.657,177.542z" id="el_xAckFBKvYkG"/>
	<path d="M48.073,160.957c3.297-3.844,8.08-4.074,12.142-0.59l4.445,3.812l-10.906,12.717l-4.445-3.812&#10;&#9;&#9;C45.246,169.6,44.76,164.819,48.073,160.957z M58.447,162.613c-2.678-2.297-5.503-2.063-7.769,0.578&#10;&#9;&#9;c-2.266,2.643-2.113,5.524,0.565,7.821l1.804,1.547l7.203-8.399L58.447,162.613z" id="el_5VviUQ988px"/>
	<path d="M34.336,138.957l3.463,6.286l6.245-3.439l1.621,2.944l-14.676,8.083l-1.622-2.943l6.035-3.324l-3.463-6.286&#10;&#9;&#9;l-6.035,3.323l-1.621-2.943l14.676-8.084l1.622,2.943L34.336,138.957z" id="el_HkQ8B8_rbWL"/>
	<path d="M21.774,125.23l1.965,6.05l3.995-1.298l-1.743-5.364l2.534-0.823l1.743,5.364l4.223-1.372l-1.965-6.049&#10;&#9;&#9;l2.602-0.846l3.003,9.245l-15.956,5.184l-3.003-9.245L21.774,125.23z" id="el_SMOtou-DwKZ"/>
	<path d="M30.005,108.871l0.827,6.622l3.305,0.699l0.438,3.502l-17.396-3.898l-0.485-3.883l15.902-8.059l0.44,3.525&#10;&#9;&#9;L30.005,108.871z M20.795,113.384l7.255,1.537l-0.601-4.812L20.795,113.384z" id="el_-2Hffjc_FDp"/>
	<path d="M16.345,98.014l14.071,0.734l0.288-5.514l2.661,0.139l-0.463,8.87L16.17,101.37L16.345,98.014z" id="el_x023ud6PP6C"/>
	<path d="M16.965,89.264l2.547-12.023l2.653,0.562l-0.925,4.368l13.738,2.91l-0.696,3.288l-13.738-2.91l-0.925,4.368&#10;&#9;&#9;L16.965,89.264z" id="el_UERfYEsHx3s"/>
	<path d="M33.94,66.594l-2.829,6.593l6.548,2.81l-1.324,3.087l-15.39-6.604l1.324-3.086l6.328,2.715l2.829-6.592&#10;&#9;&#9;L25.098,62.8l1.325-3.087l15.39,6.604l-1.325,3.087L33.94,66.594z" id="el_54EipiD6NTG"/>
	<path d="M33.798,47.926c2.19-3.006,5.58-4.277,9.017-3.168l-2.274,3.122c-1.766-0.307-3.254,0.391-4.313,1.845&#10;&#9;&#9;c-1.724,2.366-1.227,5.311,1.527,7.317c2.735,1.992,5.709,1.577,7.433-0.789c1.06-1.455,1.268-3.084,0.415-4.686l2.275-3.123&#10;&#9;&#9;c2.129,2.946,1.938,6.549-0.251,9.555c-2.84,3.898-7.853,4.789-11.906,1.835S30.958,51.824,33.798,47.926z" id="el_YABjY---Kva"/>
	<path d="M59.242,40.958l-5.022,4.395l1.271,3.13l-2.656,2.324L46.32,34.21l2.945-2.577l15.584,8.661l-2.674,2.339&#10;&#9;&#9;L59.242,40.958z M50.344,35.857l2.791,6.872l3.649-3.193L50.344,35.857z" id="el_NyPQeEZ0Qdt"/>
	<path d="M63.407,21.919c3.509-1.984,6.41-0.95,7.792,1.494c1.004,1.775,1.038,4.127-0.948,6.076l6.831,3.939&#10;&#9;&#9;l-3.384,1.914l-6.429-3.863l-1.379,0.779l3.212,5.682l-2.924,1.653l-8.244-14.581L63.407,21.919z M64.673,24.401l-2.444,1.382&#10;&#9;&#9;l2.421,4.282l2.444-1.382c1.629-0.921,1.876-2.191,1.132-3.507C67.494,23.88,66.302,23.48,64.673,24.401z" id="el_gpNWZoGzQ7J"/>
	<path d="M83.65,16.21l-6.001,2.103l1.389,3.963l5.321-1.865l0.881,2.514l-5.321,1.865l1.468,4.189l6-2.103&#10;&#9;&#9;l0.905,2.582l-9.171,3.213l-5.546-15.828l9.171-3.214L83.65,16.21z" id="el_gu4CAnGi9NE"/>
	<path d="M92.31,28.803c-1.195,0.263-2.225-0.395-2.462-1.473s0.421-2.107,1.616-2.371&#10;&#9;&#9;c1.148-0.252,2.178,0.406,2.415,1.484S93.458,28.551,92.31,28.803z" id="el_EWS06Snwg_B"/>
</g></g>
<g id="el_OsFAPWtZbWE_sAm8pktFt" data-animator-group="true" data-animator-type="2"><g id="el_OsFAPWtZbWE">
	<linearGradient id="SVGID_1_" gradientUnits="userSpaceOnUse" x1="67.6424" y1="88.7745" x2="67.6424" y2="112.7316">
		<stop offset="0" style="stop-color:#3CB9EF"/>
		<stop offset="1" style="stop-color:#1A77DD"/>
	</linearGradient>
	<path d="M56.593,109.041c1.222,0.154,1.414,0.039,1.835-1.112c2.237-6.115,4.481-12.228,6.696-18.352&#10;&#9;&#9;c0.208-0.575,0.454-0.836,1.097-0.8c1.014,0.058,2.034,0.042,3.049,0.004c0.53-0.02,0.78,0.147,0.967,0.668&#10;&#9;&#9;c1.656,4.617,3.347,9.222,5.028,13.831c0.598,1.64,1.206,3.276,1.788,4.922c0.203,0.573,0.505,0.958,1.172,0.896&#10;&#9;&#9;c0.4-0.037,0.467,0.2,0.463,0.531c-0.01,0.851-0.017,1.703,0.002,2.554c0.009,0.405-0.162,0.548-0.547,0.54&#10;&#9;&#9;c-0.874-0.017-1.749-0.022-2.624-0.022c-0.962,0-1.633-0.448-1.971-1.334c-0.504-1.322-1.002-2.648-1.435-3.994&#10;&#9;&#9;c-0.201-0.626-0.507-0.827-1.165-0.814c-2.222,0.045-4.445,0.034-6.668,0.005c-0.542-0.007-0.793,0.171-0.96,0.684&#10;&#9;&#9;c-0.408,1.256-0.867,2.496-1.327,3.734c-0.498,1.341-0.998,1.697-2.422,1.73c-0.993,0.023-1.986,0.014-2.979,0.019&#10;&#9;&#9;C56.593,111.501,56.593,110.271,56.593,109.041z M67.688,93.46c-1.013,3.147-2.03,6.308-3.071,9.542c2.089,0,4.089,0,6.146,0&#10;&#9;&#9;C69.718,99.757,68.702,96.606,67.688,93.46z" id="el_Kr8c2PtD3B9"/>
	<linearGradient id="SVGID_2_" gradientUnits="userSpaceOnUse" x1="156.7515" y1="107.4311" x2="156.7515" y2="118.2678">
		<stop offset="0" style="stop-color:#3CB9EF"/>
		<stop offset="1" style="stop-color:#1A77DD"/>
	</linearGradient>
	<path d="M160.358,118.268c-0.575-0.621-1.127-1.266-1.73-1.858c-1.462-1.434-3.149-2.548-4.995-3.432&#10;&#9;&#9;c-0.206-0.099-0.46-0.374-0.465-0.572c-0.037-1.649-0.021-3.299-0.021-4.974c0.104,0.01,0.189-0.009,0.228,0.025&#10;&#9;&#9;c1.98,1.723,3.988,3.454,5.255,5.785c0.698,1.285,1.048,2.759,1.555,4.148c0.055,0.152,0.115,0.302,0.173,0.452&#10;&#9;&#9;C160.358,117.984,160.358,118.126,160.358,118.268z" id="el_WTkPv5M6sPT"/>
	<linearGradient id="SVGID_3_" gradientUnits="userSpaceOnUse" x1="116.0476" y1="88.7557" x2="116.0476" y2="112.8278">
		<stop offset="0" style="stop-color:#3CB9EF"/>
		<stop offset="1" style="stop-color:#1A77DD"/>
	</linearGradient>
	<path d="M104.178,92.448c0-1.276,0-2.444,0-3.659c1.696,0,3.348-0.069,4.992,0.025&#10;&#9;&#9;c1.029,0.059,1.507,0.799,1.516,2.043c0.016,2.389,0.006,4.778,0.006,7.167c0,0.279,0,0.558,0,0.893c3.589,0,7.094,0,10.691,0&#10;&#9;&#9;c0-0.283,0-0.536,0-0.789c0-2.342-0.003-4.684,0.001-7.026c0.003-1.72,0.633-2.345,2.357-2.347&#10;&#9;&#9;c1.301-0.001,2.602,0.002,3.903,0.005c0.07,0,0.14,0.017,0.274,0.034c0,1.18,0,2.367,0,3.616c-0.261,0.013-0.513,0.034-0.766,0.036&#10;&#9;&#9;c-1.244,0.011-1.347,0.108-1.347,1.322c-0.001,5.843,0,11.686,0,17.529c0,1.516,0,1.516-1.54,1.516&#10;&#9;&#9;c-0.71,0-1.422-0.034-2.128,0.011c-0.585,0.037-0.772-0.154-0.766-0.752c0.029-2.815,0.013-5.63,0.013-8.445c0-0.28,0-0.56,0-0.91&#10;&#9;&#9;c-0.294-0.019-0.522-0.046-0.75-0.046c-3.052-0.003-6.103,0.015-9.155-0.015c-0.631-0.006-0.806,0.19-0.799,0.808&#10;&#9;&#9;c0.029,2.791,0.013,5.583,0.013,8.374c0,0.976-0.001,0.976-1.01,0.976c-1.106,0-2.211,0-3.378,0c0-0.372,0-0.65,0-0.929&#10;&#9;&#9;c0-6.009,0-12.017,0-18.025c0-1.304-0.095-1.398-1.412-1.411C104.681,92.446,104.47,92.448,104.178,92.448z" id="el_obv-wG0t4jA"/>
	<linearGradient id="SVGID_4_" gradientUnits="userSpaceOnUse" x1="90.7592" y1="88.251" x2="90.7592" y2="113.2427">
		<stop offset="0" style="stop-color:#3CB9EF"/>
		<stop offset="1" style="stop-color:#1A77DD"/>
	</linearGradient>
	<path d="M99.545,106.028c0.726,0.99,1.464,1.997,2.234,3.047c-1.21,1.325-2.615,2.31-4.22,2.968&#10;&#9;&#9;c-4.344,1.781-8.604,1.673-12.582-0.964c-3.152-2.088-4.782-5.196-5.149-8.905c-0.491-4.973,1.06-9.179,5.391-11.916&#10;&#9;&#9;c4.326-2.734,8.887-2.527,13.37-0.277c1.662,0.835,2.584,2.237,2.431,4.209c-0.054,0.7-0.009,1.407-0.009,2.149&#10;&#9;&#9;c-1.337,0-2.6,0-3.948,0c0-0.281-0.018-0.535,0.003-0.786c0.098-1.154-0.484-1.903-1.467-2.354&#10;&#9;&#9;c-4.601-2.11-10.583,0.088-11.209,6.195c-0.37,3.614,0.79,6.611,3.919,8.588c2.797,1.766,5.701,1.361,8.5-0.086&#10;&#9;&#9;C97.759,107.405,98.594,106.687,99.545,106.028z" id="el_IfHLNhp1LaP"/>
	<linearGradient id="SVGID_5_" gradientUnits="userSpaceOnUse" x1="139.5344" y1="88.7527" x2="139.5344" y2="112.8138">
		<stop offset="0" style="stop-color:#3CB9EF"/>
		<stop offset="1" style="stop-color:#1A77DD"/>
	</linearGradient>
	<path d="M130.874,92.398c0-1.225,0-2.377,0-3.642c0.811,0,1.605,0,2.398,0c0.709,0,1.419-0.007,2.128,0.002&#10;&#9;&#9;c1.271,0.016,1.868,0.534,2.044,1.785c0.039,0.279,0.031,0.566,0.031,0.849c0.002,5.51,0.001,11.02,0.002,16.529&#10;&#9;&#9;c0,0.991,0.156,1.146,1.152,1.147c1.513,0.002,3.027,0.004,4.54-0.001c0.892-0.003,1.051-0.161,1.066-1.016&#10;&#9;&#9;c0.024-1.262-0.219-1.147,1.187-1.154c0.917-0.005,1.835-0.001,2.748-0.001c0,1.528,0.069,2.987-0.026,4.435&#10;&#9;&#9;c-0.057,0.872-0.586,1.267-1.445,1.396c-0.349,0.052-0.705,0.082-1.058,0.083c-3.334,0.006-6.668,0.007-10.003-0.001&#10;&#9;&#9;c-0.376-0.001-0.756-0.035-1.127-0.1c-0.81-0.141-1.294-0.659-1.389-1.476c-0.038-0.327-0.034-0.661-0.034-0.992&#10;&#9;&#9;c-0.002-5.368-0.001-10.736-0.001-16.104c0-1.617-0.036-1.653-1.659-1.692C131.268,92.442,131.106,92.418,130.874,92.398z" id="el_UzwkyRqLJGn"/>
	<linearGradient id="SVGID_6_" gradientUnits="userSpaceOnUse" x1="156.5665" y1="99.5131" x2="156.5665" y2="112.6763">
		<stop offset="0" style="stop-color:#3CB9EF"/>
		<stop offset="1" style="stop-color:#1A77DD"/>
	</linearGradient>
	<path d="M153.147,99.513c1.697,1.949,3.257,3.742,4.817,5.535c0.108,0.124,0.19,0.279,0.315,0.381&#10;&#9;&#9;c1.451,1.173,1.881,2.694,1.659,4.503c-0.106,0.86-0.018,1.743-0.018,2.744c-0.208-0.182-0.351-0.281-0.461-0.408&#10;&#9;&#9;c-1.983-2.278-3.971-4.552-5.929-6.852c-0.218-0.256-0.358-0.66-0.366-1C153.125,102.86,153.147,101.302,153.147,99.513z" id="el_DzyTDkjP_K5"/>
	<linearGradient id="SVGID_7_" gradientUnits="userSpaceOnUse" x1="156.5329" y1="91.9218" x2="156.5329" y2="104.8783">
		<stop offset="0" style="stop-color:#3CB9EF"/>
		<stop offset="1" style="stop-color:#1A77DD"/>
	</linearGradient>
	<path d="M153.297,91.922c0.574,0.649,1.154,1.294,1.722,1.949c1.534,1.767,3.069,3.533,4.589,5.313&#10;&#9;&#9;c0.155,0.181,0.294,0.446,0.297,0.675c0.025,1.63,0.014,3.261,0.014,5.021c-0.209-0.18-0.353-0.276-0.463-0.402&#10;&#9;&#9;c-2.001-2.3-4.001-4.601-5.988-6.913c-0.156-0.181-0.303-0.444-0.306-0.672c-0.026-1.628-0.014-3.257-0.014-4.886&#10;&#9;&#9;C153.197,91.977,153.247,91.95,153.297,91.922z" id="el_xVEwNuUq8Nl"/>
	<linearGradient id="SVGID_8_" gradientUnits="userSpaceOnUse" x1="156.3992" y1="86.4636" x2="156.3992" y2="97.1068">
		<stop offset="0" style="stop-color:#3CB9EF"/>
		<stop offset="1" style="stop-color:#1A77DD"/>
	</linearGradient>
	<path d="M152.918,86.464c1.835,2.282,4.039,3.941,6.592,5.152c0.159,0.075,0.35,0.298,0.352,0.455&#10;&#9;&#9;c0.026,1.62,0.016,3.24,0.016,5.036C156.477,94.173,153.446,91.22,152.918,86.464z" id="el_BZsK1kLMggK"/>
</g></g>
</svg>